<svg xmlns="http://www.w3.org/2000/svg" xmlns:xlink="http://www.w3.org/1999/xlink" width="133.275" height="189.528" viewBox="0 0 133.275 189.528"><defs><style>.a{fill:#fff;}.b{filter:url(#a);}</style><filter id="a" x="0" y="0" width="133.275" height="189.528" filterUnits="userSpaceOnUse"><feOffset dy="3" input="SourceAlpha"/><feGaussianBlur stdDeviation="3" result="b"/><feFlood flood-opacity="0.161"/><feComposite operator="in" in2="b"/><feComposite in="SourceGraphic"/></filter></defs><g transform="translate(9 6)"><g transform="translate(0 0)"><g class="b" transform="matrix(1, 0, 0, 1, -9, -6)"><path class="a" d="M196.217,138.979a2.509,2.509,0,0,0-2.505,2.513v23.623a1.387,1.387,0,0,1-1.383,1.387H178.861V117.021a2.505,2.505,0,1,0-5.01,0V166.5H146.733l7.864-8.677a4.514,4.514,0,0,0,1.084-3.614c0-.025-.007-.051-.012-.076l-7.49-44.378,2.018-3.047c1.116.795,1.975,1.56,3.587,1.56a4.386,4.386,0,0,0,3.926-2.435h0l7.9-15.88,18,6.99a17.406,17.406,0,0,1,10.1,15.825v17a2.505,2.505,0,1,0,5.01,0v-17c0-14.856-12.683-20.256-13.222-20.479l-.048-.019L155.5,80.638V73.593a23.558,23.558,0,0,0,8.884-15.487,10.827,10.827,0,0,0,6.37-2.606,10.689,10.689,0,0,0,1.11-15.052V31.141a31.049,31.049,0,1,0-62.1,0v9.552a10.106,10.106,0,0,0-2.583,6.725,10.661,10.661,0,0,0,3.694,8.084,10.821,10.821,0,0,0,6.367,2.6,23.307,23.307,0,0,0,9.392,15.859v6.674L96.717,92.272l-.047.019c-.54.223-13.222,5.623-13.222,20.479v52.344a6.411,6.411,0,0,0,6.394,6.413h23.868a2.513,2.513,0,0,0,0-5.025h-5.39v-49.48a2.505,2.505,0,1,0-5.01,0V166.5H89.841a1.387,1.387,0,0,1-1.383-1.387V112.77a17.406,17.406,0,0,1,10.1-15.824l17.982-6.992,7.9,15.88a4.385,4.385,0,0,0,3.927,2.436c1.6,0,2.455-.753,3.587-1.56l2.018,3.047-7.489,44.379c0,.025-.008.05-.012.076a4.514,4.514,0,0,0,1.084,3.615l7.864,8.677H125.4a2.513,2.513,0,0,0,0,5.025h66.927a6.411,6.411,0,0,0,6.394-6.413V141.492A2.51,2.51,0,0,0,196.217,138.979Zm-35.3-50.847-7.365,14.8-8.857-6.31,9.1-11.262ZM146.109,103.8l-1.91,2.883h-6.247l-1.91-2.883,5.034-3.586Zm-14.463-22.35v-4.7a25.352,25.352,0,0,0,9.473,1.8,23.46,23.46,0,0,0,9.37-1.958v4.88l-9.413,11.654Zm37.791-34.031a5.636,5.636,0,0,1-1.95,4.272,5.827,5.827,0,0,1-2.893,1.336V41.811A5.679,5.679,0,0,1,169.437,47.418Zm-52.4,5.608a5.672,5.672,0,0,1-4.843-5.608c0-2.686,2.22-4.872,4.843-5.481Zm.135-16.209a12.355,12.355,0,0,0-2.394.541V31.141a26.038,26.038,0,1,1,52.075,0v6.045a11.109,11.109,0,0,0-2.259-.438c0-2.424.021-1.957-7.887-10.484a4.448,4.448,0,0,0-5.691-.7,48.192,48.192,0,0,1-29.2,7.884A4.456,4.456,0,0,0,117.171,36.817ZM122.047,55V38.5a53.417,53.417,0,0,0,31.311-8.47c3.627,3.906,5.591,5.954,6.224,6.733V55a18.769,18.769,0,0,1-37.536,0Zm6.552,47.932-7.365-14.8,7.112-2.763,9.1,11.265Zm2.874,51.741,7.251-42.97h4.7l7.251,42.97-9.6,10.594Z" transform="translate(-74.45 6)"/></g></g></g></svg>