<svg xmlns="http://www.w3.org/2000/svg" width="184" height="53" viewBox="0 0 184 53"><defs><style>.a,.c{fill:#a2a2ee;}.b,.c{stroke:none;}</style></defs><g class="a"><path class="b" d="M 157.5 50.5 L 26.5 50.5 C 23.25892448425293 50.5 20.1161003112793 49.86579895019531 17.15887451171875 48.6150016784668 C 14.3012752532959 47.40632629394531 11.73435020446777 45.67549896240234 9.529424667358398 43.47057342529297 C 7.32450008392334 41.26565170288086 5.593675136566162 38.69872665405273 4.385000228881836 35.84112548828125 C 3.134200096130371 32.8838996887207 2.5 29.74107551574707 2.5 26.5 C 2.5 23.25892448425293 3.134200096130371 20.1161003112793 4.385000228881836 17.15887451171875 C 5.593675136566162 14.3012752532959 7.32450008392334 11.73435020446777 9.529424667358398 9.529424667358398 C 11.73435020446777 7.32450008392334 14.3012752532959 5.593675136566162 17.15887451171875 4.385000228881836 C 20.1161003112793 3.134200096130371 23.25892448425293 2.5 26.5 2.5 L 157.5 2.5 C 160.7410736083984 2.5 163.8838958740234 3.134200096130371 166.8411254882813 4.385000228881836 C 169.69873046875 5.593675136566162 172.2656555175781 7.32450008392334 174.4705810546875 9.529424667358398 C 176.6755065917969 11.73435020446777 178.4063262939453 14.3012752532959 179.6150054931641 17.15887451171875 C 180.8657989501953 20.1161003112793 181.5 23.25892448425293 181.5 26.5 C 181.5 29.74107551574707 180.8657989501953 32.8838996887207 179.6150054931641 35.84112548828125 C 178.4063262939453 38.69872665405273 176.6755065917969 41.26565170288086 174.4705810546875 43.47057342529297 C 172.2656555175781 45.67549896240234 169.69873046875 47.40632629394531 166.8411254882813 48.6150016784668 C 163.8838958740234 49.86579895019531 160.7410736083984 50.5 157.5 50.5 Z"/><path class="c" d="M 26.5 5 C 20.75714111328125 5 15.35800170898438 7.23638916015625 11.29719543457031 11.29719543457031 C 7.23638916015625 15.35800170898438 5 20.75713729858398 5 26.5 C 5 32.24285888671875 7.23638916015625 37.64199829101563 11.29719543457031 41.70280456542969 C 15.35800170898438 45.76361083984375 20.75714111328125 48 26.5 48 L 157.5 48 C 163.2428588867188 48 168.6419677734375 45.76361083984375 172.7027740478516 41.70280456542969 C 176.7636108398438 37.64197158813477 179 32.24285888671875 179 26.5 C 179 20.75713729858398 176.7636108398438 15.35802841186523 172.7027740478516 11.29719543457031 C 168.6419677734375 7.23638916015625 163.2428588867188 5 157.5 5 L 26.5 5 M 26.5 0 L 157.5 0 C 172.1355285644531 0 184 11.86444473266602 184 26.5 C 184 41.13555526733398 172.1355285644531 53 157.5 53 L 26.5 53 C 11.86444091796875 53 0 41.13555526733398 0 26.5 C 0 11.86444473266602 11.86444091796875 0 26.5 0 Z"/></g></svg>