<svg xmlns="http://www.w3.org/2000/svg" xmlns:xlink="http://www.w3.org/1999/xlink" width="183.417" height="183.906" viewBox="0 0 183.417 183.906"><defs><style>.a{fill:#fff;}.b{filter:url(#q);}.c{filter:url(#o);}.d{filter:url(#m);}.e{filter:url(#k);}.f{filter:url(#i);}.g{filter:url(#g);}.h{filter:url(#e);}.i{filter:url(#c);}.j{filter:url(#a);}</style><filter id="a" x="50.216" y="64.496" width="82.985" height="36.457" filterUnits="userSpaceOnUse"><feOffset dy="3" input="SourceAlpha"/><feGaussianBlur stdDeviation="3" result="b"/><feFlood flood-opacity="0.161"/><feComposite operator="in" in2="b"/><feComposite in="SourceGraphic"/></filter><filter id="c" x="44.86" y="88.878" width="93.692" height="59.477" filterUnits="userSpaceOnUse"><feOffset dy="3" input="SourceAlpha"/><feGaussianBlur stdDeviation="3" result="d"/><feFlood flood-opacity="0.161"/><feComposite operator="in" in2="d"/><feComposite in="SourceGraphic"/></filter><filter id="e" x="62.031" y="0" width="71.17" height="35.776" filterUnits="userSpaceOnUse"><feOffset dy="3" input="SourceAlpha"/><feGaussianBlur stdDeviation="3" result="f"/><feFlood flood-opacity="0.161"/><feComposite operator="in" in2="f"/><feComposite in="SourceGraphic"/></filter><filter id="g" x="62.031" y="23.701" width="59.354" height="53.551" filterUnits="userSpaceOnUse"><feOffset dy="3" input="SourceAlpha"/><feGaussianBlur stdDeviation="3" result="h"/><feFlood flood-opacity="0.161"/><feComposite operator="in" in2="h"/><feComposite in="SourceGraphic"/></filter><filter id="i" x="136.711" y="100.729" width="45.879" height="44.664" filterUnits="userSpaceOnUse"><feOffset dy="3" input="SourceAlpha"/><feGaussianBlur stdDeviation="3" result="j"/><feFlood flood-opacity="0.161"/><feComposite operator="in" in2="j"/><feComposite in="SourceGraphic"/></filter><filter id="k" x="11.815" y="118.505" width="29.815" height="29.85" filterUnits="userSpaceOnUse"><feOffset dy="3" input="SourceAlpha"/><feGaussianBlur stdDeviation="3" result="l"/><feFlood flood-opacity="0.161"/><feComposite operator="in" in2="l"/><feComposite in="SourceGraphic"/></filter><filter id="m" x="0" y="136.28" width="183.417" height="47.626" filterUnits="userSpaceOnUse"><feOffset dy="3" input="SourceAlpha"/><feGaussianBlur stdDeviation="3" result="n"/><feFlood flood-opacity="0.161"/><feComposite operator="in" in2="n"/><feComposite in="SourceGraphic"/></filter><filter id="o" x="140.544" y="74.065" width="26.39" height="38.738" filterUnits="userSpaceOnUse"><feOffset dy="3" input="SourceAlpha"/><feGaussianBlur stdDeviation="3" result="p"/><feFlood flood-opacity="0.161"/><feComposite operator="in" in2="p"/><feComposite in="SourceGraphic"/></filter><filter id="q" x="152.36" y="74.065" width="26.39" height="38.738" filterUnits="userSpaceOnUse"><feOffset dy="3" input="SourceAlpha"/><feGaussianBlur stdDeviation="3" result="r"/><feFlood flood-opacity="0.161"/><feComposite operator="in" in2="r"/><feComposite in="SourceGraphic"/></filter></defs><g transform="translate(9 6)"><g class="j" transform="matrix(1, 0, 0, 1, -9, -6)"><path class="a" d="M85.985,35.339a2.958,2.958,0,0,0-2.954-2.963H59.4V25.77a25.952,25.952,0,0,1-11.815,0v6.607H23.954A2.958,2.958,0,0,0,21,35.339v8.888H85.985Z" transform="translate(38.22 44.73)"/></g><g class="i" transform="matrix(1, 0, 0, 1, -9, -6)"><path class="a" d="M89.882,75.477l4.992-38.366a2.9,2.9,0,0,0-.768-2.133A2.95,2.95,0,0,0,91.92,34H22.15a2.95,2.95,0,0,0-2.186.978,3.007,3.007,0,0,0-.768,2.252l4.992,38.247Zm-35.8-23.7h5.908V57.7H54.081Z" transform="translate(34.67 60.88)"/></g><g class="h" transform="matrix(1, 0, 0, 1, -9, -6)"><path class="a" d="M78.17,12.888V4H33.862A8.9,8.9,0,0,0,25,12.888v8.888H69.308a8.9,8.9,0,0,0,8.862-8.888Z" transform="translate(46.03 2)"/></g><g class="g" transform="matrix(1, 0, 0, 1, -9, -6)"><path class="a" d="M45.677,47.551A20.731,20.731,0,0,0,66.354,26.813V12H25V26.813A20.731,20.731,0,0,0,45.677,47.551Z" transform="translate(46.03 17.7)"/></g><g class="f" transform="matrix(1, 0, 0, 1, -9, -6)"><path class="a" d="M51.753,64.664H76.684l1.477-5.925h-6.2a11.791,11.791,0,0,0,4.076-8.888V38H52.4V49.85a11.791,11.791,0,0,0,4.082,8.888h-6.2Z" transform="translate(95.43 68.73)"/></g><g class="e" transform="matrix(1, 0, 0, 1, -9, -6)"><path class="a" d="M19.815,46.963A2.958,2.958,0,0,0,16.862,44H10.954A2.958,2.958,0,0,0,8,46.963V55.85H19.815Z" transform="translate(12.82 80.5)"/></g><g class="d" transform="matrix(1, 0, 0, 1, -9, -6)"><path class="a" d="M4,50V61.85H9.908V79.626h153.6V61.85h5.908V50Z" transform="translate(5 92.28)"/></g><g class="c" transform="matrix(1, 0, 0, 1, -9, -6)"><path class="a" d="M51.58,49.738h5.908a2.374,2.374,0,0,1,.685-1.727,8.4,8.4,0,0,0,0-10.369,2.512,2.512,0,0,1,0-3.448A8.136,8.136,0,0,0,59.969,29H54.062a2.374,2.374,0,0,1-.685,1.721,8.386,8.386,0,0,0,0,10.369,2.524,2.524,0,0,1,0,3.457A8.145,8.145,0,0,0,51.58,49.738Z" transform="translate(97.96 51.07)"/></g><g class="b" transform="matrix(1, 0, 0, 1, -9, -6)"><path class="a" d="M55.58,49.738h5.908a2.374,2.374,0,0,1,.685-1.727,8.4,8.4,0,0,0,0-10.369,2.512,2.512,0,0,1,0-3.448A8.136,8.136,0,0,0,63.969,29H58.062a2.374,2.374,0,0,1-.685,1.721,8.386,8.386,0,0,0,0,10.369,2.524,2.524,0,0,1,0,3.457,8.145,8.145,0,0,0-1.8,5.19Z" transform="translate(105.78 51.07)"/></g></g></svg>