<svg xmlns="http://www.w3.org/2000/svg" xmlns:xlink="http://www.w3.org/1999/xlink" width="183.204" height="183.693" viewBox="0 0 183.204 183.693"><defs><style>.a{fill:#fff;}.b{filter:url(#c);}.c{filter:url(#a);}</style><filter id="a" x="0" y="0" width="183.204" height="183.693" filterUnits="userSpaceOnUse"><feOffset dy="3" input="SourceAlpha"/><feGaussianBlur stdDeviation="3" result="b"/><feFlood flood-opacity="0.161"/><feComposite operator="in" in2="b"/><feComposite in="SourceGraphic"/></filter><filter id="c" x="79.376" y="53.074" width="24.453" height="24.472" filterUnits="userSpaceOnUse"><feOffset dy="3" input="SourceAlpha"/><feGaussianBlur stdDeviation="3" result="d"/><feFlood flood-opacity="0.161"/><feComposite operator="in" in2="d"/><feComposite in="SourceGraphic"/></filter></defs><g transform="translate(9 6)"><g transform="translate(0 0)"><g class="c" transform="matrix(1, 0, 0, 1, -9, -6)"><path class="a" d="M161.978,159.221h-3.227V115.856A16.2,16.2,0,0,0,145.844,100V69.255a16.175,16.175,0,0,0-16.133-16.181h-1.291V33.656a16.176,16.176,0,0,0-16.133-16.181H101.913a11.938,11.938,0,0,0-19.29-13.7,11.945,11.945,0,0,0-19.29,13.7H52.917A16.176,16.176,0,0,0,36.784,33.656V53.074H35.493A16.176,16.176,0,0,0,19.36,69.255V100A16.2,16.2,0,0,0,6.453,115.856v43.365H3.227a3.236,3.236,0,0,0,0,6.472H161.978a3.236,3.236,0,0,0,0-6.472ZM25.813,83.058A24.413,24.413,0,0,0,52.6,80.926a24.439,24.439,0,0,0,30.006,0,24.439,24.439,0,0,0,30.006,0,24.413,24.413,0,0,0,26.783,2.132V99.675H25.813Zm65.5-76.585a5.5,5.5,0,1,1-5.458,6.042c.008-.179.014-.359.014-.54s-.006-.361-.014-.54a5.5,5.5,0,0,1,5.458-4.961Zm-22.868,5.5a5.484,5.484,0,0,1,10.943-.54c-.008.179-.014.359-.014.54s.006.361.014.54a5.484,5.484,0,0,1-10.943-.54ZM35.493,59.546H68.082a3.236,3.236,0,0,0,0-6.472H43.237V33.656a9.705,9.705,0,0,1,9.68-9.709h59.37a9.705,9.705,0,0,1,9.68,9.709V53.074H97.122a3.236,3.236,0,0,0,0,6.472h32.589a9.705,9.705,0,0,1,9.68,9.709V75.2a17.944,17.944,0,0,1-24.5-.876,3.221,3.221,0,0,0-4.563,0,17.974,17.974,0,0,1-25.444,0,3.221,3.221,0,0,0-4.563,0,17.974,17.974,0,0,1-25.444,0,3.221,3.221,0,0,0-4.563,0,17.944,17.944,0,0,1-24.5.876V69.255a9.706,9.706,0,0,1,9.68-9.709Zm-12.907,46.6H142.618a9.705,9.705,0,0,1,9.68,9.709v11.906a17.3,17.3,0,0,1-23.836-.622,3.221,3.221,0,0,0-4.563,0,17.279,17.279,0,0,1-24.489,0,3.221,3.221,0,0,0-4.563,0,17.3,17.3,0,0,1-24.489,0,3.221,3.221,0,0,0-4.563,0,17.279,17.279,0,0,1-24.489,0,3.221,3.221,0,0,0-4.563,0,17.3,17.3,0,0,1-23.836.622V115.856a9.705,9.705,0,0,1,9.68-9.709Zm-9.68,53.074V135.674a23.779,23.779,0,0,0,26.116-1.941,23.732,23.732,0,0,0,29.055,0,23.765,23.765,0,0,0,29.049,0,23.732,23.732,0,0,0,29.055,0,23.78,23.78,0,0,0,26.116,1.941v23.547Z" transform="translate(9 6)"/></g><g class="b" transform="matrix(1, 0, 0, 1, -9, -6)"><path class="a" d="M249.227,170.472a3.233,3.233,0,1,0-2.281-.949A3.244,3.244,0,0,0,249.227,170.472Z" transform="translate(-157.62 -104.93)"/></g></g></g></svg>