<svg xmlns="http://www.w3.org/2000/svg" width="14.784" height="21.5" viewBox="0 0 14.784 21.5"><defs><style>.a{fill:#5555a8;}</style></defs><g transform="translate(-79.968 0)"><path class="a" d="M87.36,21.5a1.284,1.284,0,0,1-1.124-.651l-.007-.013L80.9,11.077a7.485,7.485,0,0,1,.1-7.4A7.3,7.3,0,0,1,87.194,0c.11,0,.221,0,.331,0a7.3,7.3,0,0,1,6.2,3.68,7.485,7.485,0,0,1,.1,7.4l-5.331,9.758-.007.013a1.284,1.284,0,0,1-1.124.651Zm0-20.156h-.138a5.962,5.962,0,0,0-5.064,3.01,6.151,6.151,0,0,0-.081,6.078L87.36,20.1l5.284-9.671a6.151,6.151,0,0,0-.081-6.078A5.962,5.962,0,0,0,87.5,1.345H87.36Z" transform="translate(0 0)"/><path class="a" d="M187.023,94.047a3.023,3.023,0,1,1,3.023-3.023A3.027,3.027,0,0,1,187.023,94.047Zm0-4.7a1.68,1.68,0,1,0,1.68,1.68A1.682,1.682,0,0,0,187.023,89.344Z" transform="translate(-99.664 -84.305)"/></g></svg>