<svg xmlns="http://www.w3.org/2000/svg" width="160.039" height="160.599" viewBox="0 0 160.039 160.599"><defs><style>.a{fill:#7c7cc7;}</style></defs><g transform="translate(-0.894)"><path class="a" d="M248.195,20.407a3.159,3.159,0,0,0,3.159-3.159V3.159a3.159,3.159,0,0,0-6.318,0V17.248A3.159,3.159,0,0,0,248.195,20.407Z" transform="translate(-167.562 0)"/><path class="a" d="M157.85,164.91l-5.581-5.565a10.579,10.579,0,0,0-12.517-1.786l-10.516-10.5.512-.512a10.964,10.964,0,0,0,0-15.481,10.844,10.844,0,0,0-5.5-2.974,11.032,11.032,0,0,0,.436-3.073,10.939,10.939,0,0,0-8.7-10.714,11.03,11.03,0,0,0,.436-3.073,10.929,10.929,0,0,0-8.7-10.71A10.932,10.932,0,0,0,96.034,86.566L75.2,82.621c-3.178-.6-7.147-1-9.652,1.284a5.705,5.705,0,0,0-.478.495,10.985,10.985,0,0,0-11.526,2.534,10.868,10.868,0,0,0-3.2,7.744,11.045,11.045,0,0,0,.435,3.074,10.941,10.941,0,0,0-8.7,10.7,11.013,11.013,0,0,0,.436,3.082,10.954,10.954,0,0,0-6.79,16.9,10.947,10.947,0,0,0-4.205,18.109l.51.508-10.517,10.5a10.562,10.562,0,0,0-11.95,2.071L3.974,165.2a10.553,10.553,0,0,0,0,14.9l6.969,6.96a3.159,3.159,0,0,0,4.465-4.47l-6.969-6.96a4.236,4.236,0,0,1,0-5.96l5.584-5.569a4.23,4.23,0,0,1,5.152-.632,3.185,3.185,0,0,0,.4.486,3.144,3.144,0,0,0,.908.631L52.5,196.561a3.112,3.112,0,0,0,1.523,1.539,4.228,4.228,0,0,1-.175,5.768l-5.579,5.572a4.243,4.243,0,0,1-5.973.005l-6.969-6.969a3.159,3.159,0,1,0-4.467,4.467l6.974,6.974a10.577,10.577,0,0,0,14.9,0l5.582-5.575a10.562,10.562,0,0,0,1.479-13.046l11.837-11.822.038-.039c1.355-1.4,5.13-1.139,8.78-.886a45.432,45.432,0,0,0,8.31.055l12.962,12.947a10.557,10.557,0,0,0,1.792,12.506l5.582,5.576a10.563,10.563,0,0,0,14.9,0l33.858-33.817a10.552,10.552,0,0,0,0-14.9ZM74.019,88.829l13.7,2.594-8.2,8.2A19.914,19.914,0,0,1,74.6,96.049c-2.611-2.5-4.479-5.382-4.649-7.181a.009.009,0,0,1,0,0h0a2.76,2.76,0,0,1-.014-.311A10.7,10.7,0,0,1,74.019,88.829ZM58,91.4a4.66,4.66,0,0,1,5.895-.559c1.025,4.3,4.69,8.191,6.339,9.769,1.222,1.169,5.143,4.675,9.1,5.639a4.637,4.637,0,0,1-7.087,5.921h0l0,0L58,97.952A4.652,4.652,0,0,1,58,91.4Zm-8.255,13.785a4.659,4.659,0,0,1,6.564,0l11.472,11.449a4.643,4.643,0,0,1-6.571,6.56h0l-8.7-8.7-.042-.04-2.723-2.721a4.636,4.636,0,0,1,0-6.551Zm-8.27,13.782a4.674,4.674,0,0,1,6.543-.022l8.729,8.725a4.637,4.637,0,0,1-6.57,6.544l-3.165-3.161,0,0-5.535-5.529a4.647,4.647,0,0,1,0-6.556Zm-5.5,16.557a4.669,4.669,0,0,1,6.574,0l3.169,3.165a4.637,4.637,0,0,1-6.573,6.542l-.4-.4-.014-.016-.018-.016L35.98,142.08a4.639,4.639,0,0,1,0-6.552Zm64.376,35.9a3.159,3.159,0,0,0-4.467,0l-2.81,2.807c-2.671,2.671-7.51,2.334-12.189,2.01-5.082-.353-10.337-.718-13.737,2.773L55.513,190.64l-29.1-29.054,10.3-10.279a10.955,10.955,0,0,0,16.675-9.343c0-.027,0-.054,0-.082l.082,0A10.927,10.927,0,0,0,64.42,130.946c0-.027,0-.054,0-.082l.083,0a10.915,10.915,0,0,0,10.951-11.022l.085,0a10.958,10.958,0,0,0,9.35-16.656l9.025-9.021a4.634,4.634,0,0,1,2.371-1.263c.094-.01.187-.025.279-.043a4.629,4.629,0,0,1,3.932,7.857l-2.749,2.737-.028.026-3.166,3.161a3.159,3.159,0,0,0,4.464,4.47l2.76-2.756,0,0,.417-.416a4.653,4.653,0,0,1,6.556.016,4.636,4.636,0,0,1-.007,6.548l-2.764,2.77h0l-3.166,3.153a3.159,3.159,0,0,0,4.458,4.476l3.18-3.167a4.636,4.636,0,0,1,6.561,6.553L111.5,133.8a3.159,3.159,0,1,0,4.468,4.466l2.7-2.7c.015-.015.032-.028.047-.043a4.636,4.636,0,0,1,6.563,6.551l-2.746,2.743,0,0,0,0-4.359,4.353a3.159,3.159,0,0,0,4.465,4.47l2.132-2.13,10.218,10.207L105.89,190.785,95.466,180.373a12.421,12.421,0,0,0,2.075-1.67l2.809-2.805a3.158,3.158,0,0,0,0-4.467Zm53.035,3.912L119.53,209.16a4.246,4.246,0,0,1-5.971,0l-5.582-5.576a4.224,4.224,0,0,1,0-5.953l33.858-33.817a4.245,4.245,0,0,1,5.973,0l5.581,5.565a4.235,4.235,0,0,1,0,5.962Z" transform="translate(0 -56.384)"/><path class="a" d="M94.162,19.628a3.159,3.159,0,0,0,4.463-4.472L87.114,3.668A3.159,3.159,0,0,0,82.651,8.14Z" transform="translate(-55.475 -1.884)"/><path class="a" d="M374.81,20.551a3.15,3.15,0,0,0,2.232-.924l11.5-11.489a3.159,3.159,0,0,0-4.465-4.47l-11.5,11.489a3.159,3.159,0,0,0,2.232,5.394Z" transform="translate(-254.462 -1.884)"/><path class="a" d="M60.836,431.138a3.159,3.159,0,0,0,.038,4.467l.009.009a3.159,3.159,0,1,0-.047-4.476Z" transform="translate(-40.518 -295.254)"/><path class="a" d="M335.676,338.438a3.16,3.16,0,1,0-1.419-5.981l-.018.009a3.157,3.157,0,0,0,1.437,5.972Z" transform="translate(-227.597 -227.942)"/></g></svg>