<svg xmlns="http://www.w3.org/2000/svg" width="131.404" height="131.405" viewBox="0 0 131.404 131.405"><defs><style>.a{fill:#40407a;}</style></defs><g transform="translate(0 0)"><path class="a" d="M131.25,9.81A10.214,10.214,0,0,0,121.594.154C111.062-.421,90.452.139,70.745,10.332,60.7,15.529,50.073,24.339,41.593,34.5c-.1.125-.206.251-.31.377L22.04,36.368A10.159,10.159,0,0,0,14.3,40.922L1.171,60.78A7.037,7.037,0,0,0,5.963,71.614l16.213,2.511c-.057.315-.115.63-.167.945a10.208,10.208,0,0,0,2.862,8.88l22.583,22.583a10.234,10.234,0,0,0,7.223,3,10.064,10.064,0,0,0,1.657-.138c.315-.053.63-.11.945-.167l2.511,16.213a7.031,7.031,0,0,0,10.834,4.793l19.857-13.129a10.157,10.157,0,0,0,4.554-7.741l1.487-19.243c.125-.1.252-.205.377-.31,10.166-8.479,18.976-19.1,24.173-29.151,10.194-19.708,10.753-40.318,10.178-50.85ZM86.235,110.682,67.24,123.241l-2.447-15.8A86.242,86.242,0,0,0,88.328,96.235l-.968,12.536a2.508,2.508,0,0,1-1.125,1.911ZM52.9,101.089,30.315,78.506A2.5,2.5,0,0,1,29.6,76.34,66.227,66.227,0,0,1,32.609,64.9L66.494,98.788a66.506,66.506,0,0,1-11.43,3.013,2.5,2.5,0,0,1-2.166-.712ZM22.633,44.044l12.536-.968A86.235,86.235,0,0,0,23.963,66.611l-15.8-2.447,12.559-19A2.508,2.508,0,0,1,22.633,44.044ZM91.968,83.9A88.266,88.266,0,0,1,74.147,95.553l-38.3-38.3A89.793,89.793,0,0,1,47.506,39.436c7.847-9.407,17.607-17.523,26.776-22.266,18.087-9.356,37.143-9.859,46.893-9.329a2.525,2.525,0,0,1,2.387,2.387c.532,9.75.027,28.806-9.329,46.893C109.491,66.292,101.375,76.051,91.968,83.9Z" transform="translate(0 0)"/><path class="a" d="M294.971,124.8a19.233,19.233,0,1,0-13.61-5.629A19.193,19.193,0,0,0,294.971,124.8ZM286.8,97.391a11.548,11.548,0,1,1-3.383,8.166A11.512,11.512,0,0,1,286.8,97.391Z" transform="translate(-204.959 -64.165)"/><path class="a" d="M4.151,363.233a3.836,3.836,0,0,0,2.722-1.128l12.569-12.569A3.85,3.85,0,1,0,14,344.092L1.429,356.661a3.85,3.85,0,0,0,2.722,6.572Z" transform="translate(-0.224 -254.943)"/><path class="a" d="M30.737,388.973a3.85,3.85,0,0,0-5.444,0L1.128,413.138a3.85,3.85,0,1,0,5.444,5.444l24.165-24.164a3.849,3.849,0,0,0,0-5.444Z" transform="translate(-0.001 -288.305)"/><path class="a" d="M103.759,433.854,91.19,446.423a3.85,3.85,0,1,0,5.444,5.444L109.2,439.3a3.85,3.85,0,1,0-5.444-5.444Z" transform="translate(-66.948 -321.668)"/></g></svg>