<svg xmlns="http://www.w3.org/2000/svg" width="146.984" height="146.984" viewBox="0 0 146.984 146.984"><defs><style>.a{fill:#7c7cc7;}</style></defs><g transform="translate(-0.001 0)"><g transform="translate(0.001 0)"><path class="a" d="M145.576,39.73,116.911,22.776l5.864-3.385a2.871,2.871,0,0,0,0-4.972L98.469.385a2.871,2.871,0,0,0-4.306,2.486v9.846L49.953,38.865,39.211,32.512a2.871,2.871,0,0,0-2.923,4.942l12.2,7.218a2.871,2.871,0,0,0,2.923,0L94.162,19.388v8L49.952,53.541,16.964,34.03A2.871,2.871,0,0,0,12.632,36.5v72.562a2.871,2.871,0,0,0,1.409,2.471l34.449,20.376a2.871,2.871,0,0,0,2.923,0l45.619-26.982,32.988,19.511a2.871,2.871,0,0,0,4.332-2.471V49.405a2.87,2.87,0,0,0-1.409-2.471L104.355,30.025l6.849-3.954,30.039,17.767V139.08L98.495,113.8a2.871,2.871,0,0,0-2.923,0L49.952,140.778,5.742,114.63V19.387l8.3,4.908a2.871,2.871,0,0,0,2.923-4.942l-12.63-7.47A2.871,2.871,0,0,0,0,14.354V116.267a2.87,2.87,0,0,0,1.409,2.471l47.081,27.847a2.871,2.871,0,0,0,2.923,0L97.034,119.6l45.619,26.982a2.871,2.871,0,0,0,4.332-2.471V42.2a2.872,2.872,0,0,0-1.41-2.471ZM99.9,25.965V7.843L115.6,16.9ZM18.374,41.534,48.491,59.347a2.871,2.871,0,0,0,2.923,0l12.361-7.311,4.047,5.655A28.476,28.476,0,0,0,90.93,69.569a26.227,26.227,0,0,0,10.834-2.325,20.765,20.765,0,0,1,18.431.735l8.416,4.627V83.8l-3.259-2.042a35.272,35.272,0,0,0-18.752-5.39,33.7,33.7,0,0,0-20.086,6.692,26.838,26.838,0,0,1-16,5.328,4.181,4.181,0,0,1-4.176-4.176A8.107,8.107,0,0,0,53.712,77.48L37.154,88.614a12.054,12.054,0,0,1-18.78-10V41.534ZM98.495,99.121a2.871,2.871,0,0,0-2.923,0L49.952,126.1,18.374,107.425V91.689a17.772,17.772,0,0,0,21.984,1.691L56.916,82.245A2.366,2.366,0,0,1,60.6,84.208a9.929,9.929,0,0,0,9.917,9.917,32.617,32.617,0,0,0,19.439-6.476A27.926,27.926,0,0,1,106.6,82.1a29.536,29.536,0,0,1,15.7,4.514l6.308,3.953v26.363Zm30.117-33.066-5.65-3.106a26.53,26.53,0,0,0-23.553-.94,20.529,20.529,0,0,1-8.478,1.82,22.722,22.722,0,0,1-18.439-9.478L68.736,49.1,94.163,34.063v9.573a2.871,2.871,0,1,0,5.742,0V34.063l28.708,16.979V66.054Z" transform="translate(-0.001 0)"/><path class="a" d="M152.613,341a8.612,8.612,0,1,0,8.612,8.612A8.622,8.622,0,0,0,152.613,341Zm0,11.483a2.871,2.871,0,1,1,2.871-2.871A2.874,2.874,0,0,1,152.613,352.483Z" transform="translate(-102.662 -243.106)"/><path class="a" d="M85.631,94.692a2.872,2.872,0,1,0-2.03-.841A2.892,2.892,0,0,0,85.631,94.692Z" transform="translate(-59.002 -63.414)"/></g></g></svg>