<svg xmlns="http://www.w3.org/2000/svg" width="226.085" height="258.968" viewBox="0 0 226.085 258.968"><defs><style>.a{fill:#29655d;}.b{fill:#836f6e;}.c{fill:#49434f;}.d{fill:#22514b;}.e{fill:#3f1649;}.f{fill:#5f266d;}</style></defs><g transform="translate(0 205.483) rotate(-71)"><path class="a" d="M201.719,157.346H8.668A8.668,8.668,0,0,1,0,148.678V8.668A8.668,8.668,0,0,1,8.668,0H201.72a8.668,8.668,0,0,1,8.668,8.668v140.01a8.669,8.669,0,0,1-8.669,8.667Z" transform="translate(3.468 3.468)"/><g transform="translate(20.729 96.547)"><g transform="translate(38.382 0)"><circle class="b" cx="8.593" cy="8.593" r="8.593"/><circle class="b" cx="8.593" cy="8.593" r="8.593" transform="translate(40.958 0)"/><circle class="b" cx="8.593" cy="8.593" r="8.593" transform="translate(81.916 0)"/></g><circle class="b" cx="8.593" cy="8.593" r="8.593" transform="translate(0 30.262)"/><circle class="b" cx="8.593" cy="8.593" r="8.593" transform="translate(158.679 0)"/></g><path class="c" d="M0,0H90.439V15.394H0Z" transform="translate(63.587 3.468)"/><path class="c" d="M0,0H68.48V18.538H0Z" transform="translate(25.446 34.564)"/><path class="d" d="M21.671,157.348h-13A8.666,8.666,0,0,1,0,148.679V8.668A8.665,8.665,0,0,1,8.668,0h13A8.665,8.665,0,0,0,13,8.668V148.679A8.666,8.666,0,0,0,21.671,157.348Z" transform="translate(3.472 3.467)"/><path class="d" d="M21.671,8.668V148.679A8.666,8.666,0,0,1,13,157.348H0a8.666,8.666,0,0,0,8.668-8.668V8.668A8.665,8.665,0,0,0,0,0H13a8.666,8.666,0,0,1,8.668,8.668Z" transform="translate(192.181 3.467)"/><g transform="translate(0)"><path class="e" d="M205.187,0H12.136A12.149,12.149,0,0,0,0,12.136V152.147a12.149,12.149,0,0,0,12.136,12.136H205.187a12.149,12.149,0,0,0,12.136-12.136V12.136A12.15,12.15,0,0,0,205.187,0ZM67.054,6.935h83.5v8.46h-83.5ZM210.388,152.147a5.206,5.206,0,0,1-5.2,5.2H12.137a5.206,5.206,0,0,1-5.2-5.2V12.136a5.206,5.206,0,0,1,5.2-5.2H60.119V18.862a3.467,3.467,0,0,0,3.467,3.467h90.439a3.467,3.467,0,0,0,3.467-3.467V6.935h47.694a5.206,5.206,0,0,1,5.2,5.2Z"/><path class="e" d="M174.617,20.544V3.467A3.467,3.467,0,0,0,171.149,0H91.292a3.468,3.468,0,0,0-3.467,3.467V20.435a12.11,12.11,0,0,0-7.971,8.05H61.99a12.061,12.061,0,1,0,0,6.935H79.854A12.058,12.058,0,1,0,94.76,20.379V6.935h33.629V20.579a12.064,12.064,0,1,0,6.936-.3V6.935h32.357V20.3a12.048,12.048,0,0,0-.407,23.2V57.878a.868.868,0,0,1-.867.867H23.607a12.06,12.06,0,1,0,0,6.935h142.8a7.81,7.81,0,0,0,7.8-7.8V43.5a12.049,12.049,0,0,0,.407-22.955ZM50.443,37.079a5.126,5.126,0,1,1,5.125-5.146c0,.007,0,.012,0,.019s0,.013,0,.02A5.13,5.13,0,0,1,50.443,37.079Zm46.084-5.126a5.126,5.126,0,0,1-10.251.018c0-.007,0-.013,0-.02s0-.012,0-.019a5.127,5.127,0,0,1,4.936-5.1c.028,0,.054.009.081.009.053,0,.1-.013.153-.016a5.13,5.13,0,0,1,5.081,5.123Zm40.958,0a5.126,5.126,0,1,1-5.126-5.126A5.132,5.132,0,0,1,137.485,31.953ZM12.061,67.341a5.126,5.126,0,1,1,5.124-5.155c0,.01,0,.018,0,.027s0,.019,0,.029A5.13,5.13,0,0,1,12.061,67.341ZM170.74,37.079a5.126,5.126,0,1,1,5.126-5.126A5.131,5.131,0,0,1,170.74,37.079Z" transform="translate(17.261 73.187)"/><path class="e" d="M3.467,25.474h68.48a3.467,3.467,0,0,0,3.467-3.467V3.467A3.467,3.467,0,0,0,71.947,0H3.467A3.467,3.467,0,0,0,0,3.467V22.006A3.467,3.467,0,0,0,3.467,25.474ZM58.945,6.935H68.48v11.6H58.945Zm-17.77,0H52.01v11.6H41.175Zm-17.77,0H34.24v11.6H23.4Zm-16.47,0H16.47v11.6H6.935Z" transform="translate(21.979 31.096)"/><path class="f" d="M3.467,24.271A3.467,3.467,0,0,0,6.935,20.8V3.467A3.467,3.467,0,1,0,0,3.467V20.8A3.467,3.467,0,0,0,3.467,24.271Z" transform="translate(185.81 22.33)"/><path class="f" d="M3.467,13.869A3.467,3.467,0,0,0,6.935,10.4V3.467A3.467,3.467,0,1,0,0,3.467V10.4A3.467,3.467,0,0,0,3.467,13.869Z" transform="translate(185.81 52.669)"/></g></g></svg>