<svg xmlns="http://www.w3.org/2000/svg" width="274.491" height="267.507" viewBox="0 0 274.491 267.507"><defs><style>.a{fill:#e6e9ed;}.b{fill:#fcd770;}.c{fill:#ff826e;}</style></defs><g transform="matrix(0.259, -0.966, 0.966, 0.259, -1.225, 210.208)"><g transform="translate(4.362 4.595)"><g transform="translate(166.536 0.02)"><path class="a" d="M91.378,2V30.919H48V2Z" transform="translate(-48 -2)"/></g><g transform="translate(108.699 0.02)"><path class="a" d="M32,30.919V2H75.378V30.919Z" transform="translate(-32 -2)"/></g><g transform="translate(0.253 180.763)"><path class="a" d="M2,80.919V52H45.378V80.919H2Z" transform="translate(-2 -52)"/></g><g transform="translate(65.32 65.087)"><path class="b" d="M106.756,99.527v3.615a3.625,3.625,0,0,1-3.615,3.615H23.615A3.625,3.625,0,0,1,20,103.142V23.615A3.625,3.625,0,0,1,23.615,20h79.527a3.625,3.625,0,0,1,3.615,3.615V99.527Z" transform="translate(-20 -20)"/></g><g transform="translate(123.037 79.336)"><circle class="c" cx="7.396" cy="7.396" r="7.396" transform="translate(0 0)"/></g><g transform="translate(80.008 123.037)"><circle class="c" cx="7.06" cy="7.06" r="7.06" transform="translate(0 0)"/></g><g transform="translate(86.731 188.254)"><ellipse class="c" cx="7.396" cy="7.06" rx="7.396" ry="7.06" transform="translate(0 0)"/></g><g transform="translate(57.821 188.254)"><ellipse class="c" cx="7.396" cy="7.06" rx="7.396" ry="7.06" transform="translate(0 0)"/></g><g transform="translate(0 144.552)"><circle class="c" cx="7.396" cy="7.396" r="7.396" transform="translate(0 0)"/></g><g transform="translate(22.187 97.489)"><ellipse class="c" cx="7.06" cy="7.396" rx="7.06" ry="7.396" transform="translate(0 0)"/></g><g transform="translate(0 0)"><circle class="c" cx="7.396" cy="7.396" r="7.396"/></g><g transform="translate(80.008 7.396)"><circle class="c" cx="7.06" cy="7.06" r="7.06" transform="translate(0 0)"/></g><g transform="translate(180.858 101.523)"><ellipse class="c" cx="7.396" cy="7.06" rx="7.396" ry="7.06" transform="translate(0 0)"/></g><g transform="translate(202.373 79.336)"><circle class="c" cx="7.396" cy="7.396" r="7.396" transform="translate(0 0)"/></g><g transform="translate(202.373 202.373)"><circle class="c" cx="7.396" cy="7.396" r="7.396" transform="translate(0 0)"/></g></g><g transform="translate(1 1)"><path d="M45.845,23A10.845,10.845,0,1,0,56.689,33.845,10.858,10.858,0,0,0,45.845,23Zm0,14.459a3.615,3.615,0,1,1,3.615-3.615A3.618,3.618,0,0,1,45.845,37.459Z" transform="translate(87.905 56.527)"/><path d="M33.845,35A10.845,10.845,0,1,0,44.689,45.845,10.858,10.858,0,0,0,33.845,35Zm0,14.459a3.615,3.615,0,1,1,3.615-3.615A3.618,3.618,0,0,1,33.845,49.459Z" transform="translate(56.527 87.905)"/><path d="M27.845,53A10.845,10.845,0,1,0,38.689,63.845,10.858,10.858,0,0,0,27.845,53Zm0,14.459a3.615,3.615,0,1,1,3.615-3.615A3.618,3.618,0,0,1,27.845,67.459Z" transform="translate(40.838 134.972)"/><path d="M35.845,53A10.845,10.845,0,1,0,46.689,63.845,10.858,10.858,0,0,0,35.845,53Zm0,14.459a3.615,3.615,0,1,1,3.615-3.615A3.618,3.618,0,0,1,35.845,67.459Z" transform="translate(61.756 134.972)"/><path d="M52.689,52.689H31v7.23H59.919V31h-7.23Z" transform="translate(77.446 77.446)"/><path d="M32.23,32.23H53.919V25H25V53.919h7.23Z" transform="translate(61.756 61.756)"/><path d="M80.067,123.446V137.9H87.3V123.446h7.23V137.9h7.23V123.446h7.23V137.9h7.23V123.446a7.237,7.237,0,0,0,7.23-7.23H137.9v-7.23H123.446v-7.23H137.9v-7.23H123.446V87.3H137.9v-7.23H123.446v-7.23H137.9v-7.23H123.446v-7.23H137.9v-7.23H123.446v-7.23H137.9v-7.23H123.446a7.237,7.237,0,0,0-7.23-7.23V15h-7.23V29.459h-7.23V15h-7.23V29.459H87.3V15h-7.23V29.459h-7.23V15h-7.23V29.459h-7.23V15h-7.23V29.459h-7.23V15h-7.23V29.459a7.237,7.237,0,0,0-7.23,7.23H15v7.23H29.459v7.23H15v7.23H29.459v7.23H15v7.23H29.459v7.23H15V87.3H29.459v7.23H15v7.23H29.459v7.23H15v7.23H29.459a7.237,7.237,0,0,0,7.23,7.23V137.9h7.23V123.446h7.23V137.9h7.23V123.446h7.23V137.9h7.23V123.446ZM36.689,36.689h79.527l0,79.527H36.689Z" transform="translate(35.608 35.608)"/><path d="M9,55h7.23v7.23H9Z" transform="translate(19.919 140.202)"/><path d="M5,55h7.23v7.23H5Z" transform="translate(9.459 140.202)"/><path d="M55,5h7.23v7.23H55Z" transform="translate(140.202 9.459)"/><path d="M51,5h7.23v7.23H51Z" transform="translate(129.743 9.459)"/><path d="M81.608,22.689h7.23V37.149h50.608V1H88.838V15.459h-7.23V1H31V37.149H81.608ZM96.067,8.23h36.149V29.919H96.067ZM74.378,29.919H38.23V8.23H74.378Z" transform="translate(77.446 -1)"/><path d="M35,5h7.23v7.23H35Z" transform="translate(87.905 9.459)"/><path d="M39,5h7.23v7.23H39Z" transform="translate(98.364 9.459)"/><path d="M44.378,49h-7.23v7.23h-7.23V49h-7.23v7.23h-7.23V49H8.23v7.23H1V92.378H8.23v7.23h7.23v-7.23h7.23v7.23h7.23v-7.23h7.23v7.23h7.23v-7.23h7.23V56.23h-7.23Zm0,36.148H8.23V63.459H44.378Z" transform="translate(-1 124.513)"/><path d="M67.845,57A10.845,10.845,0,1,0,78.689,67.845,10.858,10.858,0,0,0,67.845,57Zm0,14.459a3.615,3.615,0,1,1,3.615-3.615A3.619,3.619,0,0,1,67.845,71.459Z" transform="translate(145.432 145.432)"/><path d="M41,59H91.608v7.23H41Z" transform="translate(103.594 150.661)"/><path d="M79.919,43.459v79.527h7.23V36.23H72.024a10.845,10.845,0,1,0,0,7.23Zm-18.074,0a3.615,3.615,0,1,1,3.615-3.615A3.618,3.618,0,0,1,61.845,43.459Z" transform="translate(129.743 72.216)"/><path d="M105.3,102.067H33v7.23h79.527V37H105.3Z" transform="translate(82.675 93.135)"/><path d="M53,13h7.23V63.608H53Z" transform="translate(134.972 30.378)"/><path d="M57,33.845A10.845,10.845,0,1,0,67.845,23,10.858,10.858,0,0,0,57,33.845Zm14.459,0a3.615,3.615,0,1,1-3.615-3.615A3.618,3.618,0,0,1,71.459,33.845Z" transform="translate(145.432 56.527)"/><path d="M59,13h7.23V41.919H59Z" transform="translate(150.661 30.378)"/><path d="M11.845,62.689A10.845,10.845,0,1,0,1,51.845,10.858,10.858,0,0,0,11.845,62.689Zm0-14.459A3.615,3.615,0,1,1,8.23,51.845,3.618,3.618,0,0,1,11.845,48.23Z" transform="translate(-1 103.594)"/><path d="M31.919,21h-7.23V31.845H3V86.067h7.23V39.074H31.919Z" transform="translate(4.23 51.297)"/><path d="M7,38.845A10.845,10.845,0,1,0,17.845,28,10.858,10.858,0,0,0,7,38.845Zm14.459,0a3.615,3.615,0,1,1-3.615-3.615A3.618,3.618,0,0,1,21.459,38.845Z" transform="translate(14.689 69.601)"/><path d="M9,36h7.23V72.148H9Z" transform="translate(19.919 90.52)"/><path d="M11.845,22.689A10.845,10.845,0,1,0,1,11.845,10.858,10.858,0,0,0,11.845,22.689Zm0-14.459A3.615,3.615,0,1,1,8.23,11.845,3.618,3.618,0,0,1,11.845,8.23Z" transform="translate(-1 -1)"/><path d="M33.845,24.689A10.845,10.845,0,1,0,23,13.845,10.858,10.858,0,0,0,33.845,24.689Zm0-14.459a3.615,3.615,0,1,1-3.615,3.615A3.618,3.618,0,0,1,33.845,10.23Z" transform="translate(56.527 4.23)"/><path d="M20.23,37.534H34.689V12.23h7.23V5H27.459V30.3H13v25.3h7.23Z" transform="translate(30.378 9.459)"/><path d="M10.23,8H3V36.919H24.689V47.763h7.23V29.689H10.23Z" transform="translate(4.23 17.304)"/></g></g></svg>