<svg xmlns="http://www.w3.org/2000/svg" width="122.098" height="133.479" viewBox="0 0 122.098 133.479"><defs><style>.a{fill:#60b8ff;}.b{fill:#3172a6;}.c{fill:#0f4b72;}.d{fill:#ffea7e;}.e{fill:#ffe02f;}.f{fill:#fbc700;}.g{fill:#8697a7;}.h{fill:#6f89a1;}.i{fill:#b5624c;}.j{fill:#9b4932;}</style></defs><g transform="translate(6.82 1.954)"><g transform="translate(9.67 15.153)"><path class="a" d="M131.675,65.618a46.767,46.767,0,0,0-26.668,85.065h53.335a46.767,46.767,0,0,0-26.668-85.065Z" transform="translate(-85.08 -65.618)"/></g><g transform="translate(9.67 15.153)"><path class="b" d="M131.675,65.618a46.767,46.767,0,0,0-26.668,85.065h53.335a46.767,46.767,0,0,0-26.668-85.065Z" transform="translate(-85.08 -65.618)"/></g><path class="c" d="M104.181,112.305c0-22.917,12.861-42.053,30-46.62q-1.244-.066-2.505-.068a46.767,46.767,0,0,0-26.668,85.065h14.319C110.131,141.97,104.181,127.89,104.181,112.305Z" transform="translate(-75.41 -50.465)"/><path class="d" d="M361.955,12.02a9,9,0,0,1-3.918-3.926,1.087,1.087,0,0,0-1.943,0,9,9,0,0,1-3.918,3.926,1.091,1.091,0,0,0-.6.97v.027a1.081,1.081,0,0,0,.586.964,9,9,0,0,1,3.911,3.9,1.081,1.081,0,0,0,.963.583h.051a1.08,1.08,0,0,0,.963-.583,9,9,0,0,1,3.911-3.9,1.081,1.081,0,0,0,.586-.964V12.99A1.088,1.088,0,0,0,361.955,12.02Z" transform="translate(-272.431 -7.495)"/><path class="d" d="M58.363,369.987a9,9,0,0,1-3.918-3.926,1.087,1.087,0,0,0-1.943,0,9,9,0,0,1-3.918,3.926,1.091,1.091,0,0,0-.6.97v.027a1.081,1.081,0,0,0,.586.964,9,9,0,0,1,3.911,3.9,1.081,1.081,0,0,0,.963.583H53.5a1.08,1.08,0,0,0,.963-.583,9,9,0,0,1,3.911-3.9,1.081,1.081,0,0,0,.586-.964v-.027A1.088,1.088,0,0,0,58.363,369.987Z" transform="translate(-47.988 -272.138)"/><g transform="translate(0 0)"><path class="e" d="M440.66,71.515a11.727,11.727,0,0,1-5.1-5.115,1.416,1.416,0,0,0-2.531,0,11.726,11.726,0,0,1-5.1,5.116,1.421,1.421,0,0,0-.777,1.264v.035a1.408,1.408,0,0,0,.763,1.257,11.724,11.724,0,0,1,5.1,5.084,1.408,1.408,0,0,0,1.255.76h.066a1.409,1.409,0,0,0,1.255-.76,11.722,11.722,0,0,1,5.1-5.084,1.409,1.409,0,0,0,.763-1.257v-.035A1.421,1.421,0,0,0,440.66,71.515Z" transform="translate(-328.294 -50.466)"/><path class="e" d="M357.653,13.982a1.081,1.081,0,0,1-.586-.964v-.027a1.09,1.09,0,0,1,.6-.97,8.987,8.987,0,0,0,2.146-1.54A8.983,8.983,0,0,1,358.038,8.1a1.087,1.087,0,0,0-1.943,0,9,9,0,0,1-3.918,3.926,1.091,1.091,0,0,0-.6.97v.027a1.081,1.081,0,0,0,.586.964,9,9,0,0,1,3.911,3.9,1.08,1.08,0,0,0,.963.583h.051a1.08,1.08,0,0,0,.963-.583,8.977,8.977,0,0,1,1.754-2.356,8.966,8.966,0,0,0-2.157-1.546Z" transform="translate(-272.432 -7.496)"/><path class="e" d="M54.061,371.948a1.081,1.081,0,0,1-.586-.964v-.027a1.09,1.09,0,0,1,.6-.97,8.986,8.986,0,0,0,2.146-1.54,8.977,8.977,0,0,1-1.771-2.386,1.087,1.087,0,0,0-1.943,0,9,9,0,0,1-3.918,3.926,1.091,1.091,0,0,0-.6.97v.027a1.081,1.081,0,0,0,.586.964,9,9,0,0,1,3.911,3.9,1.081,1.081,0,0,0,.963.583H53.5a1.081,1.081,0,0,0,.963-.583,8.977,8.977,0,0,1,1.754-2.356,8.972,8.972,0,0,0-2.157-1.546Z" transform="translate(-47.989 -272.138)"/></g><path class="f" d="M433.392,74.07a1.409,1.409,0,0,1-.763-1.257v-.035a1.421,1.421,0,0,1,.777-1.264,11.73,11.73,0,0,0,3.628-2.889,11.686,11.686,0,0,1-1.477-2.227,1.416,1.416,0,0,0-2.531,0,11.727,11.727,0,0,1-5.1,5.116,1.421,1.421,0,0,0-.777,1.264v.035a1.408,1.408,0,0,0,.763,1.257,11.723,11.723,0,0,1,5.1,5.084,1.409,1.409,0,0,0,1.255.76h.066a1.409,1.409,0,0,0,1.255-.76,11.685,11.685,0,0,1,1.455-2.185A11.719,11.719,0,0,0,433.392,74.07Z" transform="translate(-328.295 -50.466)"/><path class="g" d="M203.561,390.9H145.928a2.59,2.59,0,0,0-2.59,2.59v5.7h62.813v-5.7A2.59,2.59,0,0,0,203.561,390.9Z" transform="translate(-118.48 -290.947)"/><path class="h" d="M162.222,390.9H145.928a2.59,2.59,0,0,0-2.59,2.59v5.7h16.294v-5.7A2.59,2.59,0,0,1,162.222,390.9Z" transform="translate(-118.48 -290.947)"/><g transform="translate(20.96 107.467)"><path class="i" d="M198.994,435.085V422.526a2.824,2.824,0,0,0-2.816-2.816H131.2a2.824,2.824,0,0,0-2.816,2.816v12.559Z" transform="translate(-128.385 -419.71)"/></g><path class="j" d="M147.5,419.71H131.2a2.824,2.824,0,0,0-2.816,2.816v12.559h16.294V422.526A2.824,2.824,0,0,1,147.5,419.71Z" transform="translate(-107.425 -312.243)"/><path class="i" d="M188.769,475.685H115.021a2.59,2.59,0,0,0-2.59,2.59v2.33a2.59,2.59,0,0,0,2.59,2.59h73.749a2.59,2.59,0,0,0,2.59-2.59v-2.33A2.59,2.59,0,0,0,188.769,475.685Z" transform="translate(-95.63 -353.625)"/><path class="j" d="M128.725,480.605v-2.33a2.59,2.59,0,0,1,2.59-2.59H115.021a2.59,2.59,0,0,0-2.59,2.59v2.33a2.59,2.59,0,0,0,2.59,2.59h16.294A2.59,2.59,0,0,1,128.725,480.605Z" transform="translate(-95.63 -353.625)"/></g><path d="M334.263,113.882a1.955,1.955,0,1,0-2.03,3.343,35.188,35.188,0,0,1,17.058,30.291,1.955,1.955,0,0,0,3.911,0,39.319,39.319,0,0,0-18.938-33.634Z" transform="translate(-250.613 -83.982)"/><path d="M349.483,13.236a3.083,3.083,0,0,0,5.456,0A7.08,7.08,0,0,1,358,10.183a3.064,3.064,0,0,0-.009-5.444,7.084,7.084,0,0,1-3.065-3.072,3.043,3.043,0,0,0-5.428,0,7.087,7.087,0,0,1-3.066,3.072,3.064,3.064,0,0,0-.008,5.444A7.084,7.084,0,0,1,349.483,13.236Zm2.728-8.51a11.089,11.089,0,0,0,2.739,2.737,11.083,11.083,0,0,0-2.739,2.739,11.084,11.084,0,0,0-2.739-2.739A11.086,11.086,0,0,0,352.211,4.726Z" transform="translate(-260.576 -0.001)"/><path d="M45.9,359.634a7.084,7.084,0,0,1-3.065,3.071,3.064,3.064,0,0,0-.009,5.444,7.083,7.083,0,0,1,3.06,3.053,3.083,3.083,0,0,0,5.456,0,7.081,7.081,0,0,1,3.06-3.052,3.064,3.064,0,0,0-.009-5.444h0a7.084,7.084,0,0,1-3.065-3.072,3.043,3.043,0,0,0-5.428,0Zm5.453,5.8a11.084,11.084,0,0,0-2.739,2.739,11.089,11.089,0,0,0-2.739-2.739,11.089,11.089,0,0,0,2.739-2.737A11.077,11.077,0,0,0,51.357,365.429Z" transform="translate(-36.132 -264.643)"/><path d="M426.4,74.507a3.425,3.425,0,0,0,6.055,0,9.828,9.828,0,0,1,4.245-4.234,3.4,3.4,0,0,0-.012-6.038,9.827,9.827,0,0,1-4.252-4.262,3.373,3.373,0,0,0-6.017,0,9.824,9.824,0,0,1-4.252,4.261,3.4,3.4,0,0,0-.012,6.038A9.825,9.825,0,0,1,426.4,74.507Zm3.028-11.9a13.808,13.808,0,0,0,4.655,4.652,13.811,13.811,0,0,0-4.655,4.656,13.812,13.812,0,0,0-4.655-4.656A13.811,13.811,0,0,0,429.433,62.6Z" transform="translate(-316.437 -42.971)"/><path d="M26.81,291.323a1.955,1.955,0,0,0-1.955,1.955v1.073H23.782a1.955,1.955,0,1,0,0,3.911h1.073v1.073a1.955,1.955,0,1,0,3.911,0v-1.073h1.073a1.955,1.955,0,1,0,0-3.911H28.766v-1.073A1.955,1.955,0,0,0,26.81,291.323Z" transform="translate(-21.827 -215.373)"/><path d="M78.268,106.667a48.62,48.62,0,0,0,17.175,37.046,4.543,4.543,0,0,0-1.987,3.754v3.049a4.777,4.777,0,0,0-3.9,4.688v9.841a4.549,4.549,0,0,0-4.159,4.525v2.33a4.55,4.55,0,0,0,4.545,4.545h32.312a1.955,1.955,0,1,0,0-3.911H89.943a.635.635,0,0,1-.634-.634v-2.33a.635.635,0,0,1,.634-.634h73.749a.635.635,0,0,1,.634.634v2.33a.635.635,0,0,1-.634.634H131.38a1.955,1.955,0,1,0,0,3.911h32.312a4.55,4.55,0,0,0,4.545-4.545v-2.33a4.549,4.549,0,0,0-4.159-4.525V155.2a4.777,4.777,0,0,0-3.9-4.688v-3.049a4.543,4.543,0,0,0-1.988-3.754,48.4,48.4,0,0,0,16.963-32.469,1.955,1.955,0,0,0-3.894-.364,44.541,44.541,0,0,1-18.4,32.042H100.773a44.64,44.64,0,1,1,70.457-40.789,1.955,1.955,0,1,0,3.891-.392,48.552,48.552,0,0,0-96.853,4.927Zm15.2,58.357V155.2a.872.872,0,0,1,.861-.861h64.977a.872.872,0,0,1,.861.861v9.822Zm62.166-18.192a.635.635,0,0,1,.634.634v2.965h-58.9v-2.965a.635.635,0,0,1,.634-.634Z" transform="translate(-63.553 -42.966)"/></svg>