<svg xmlns="http://www.w3.org/2000/svg" width="131.972" height="194.501" viewBox="0 0 131.972 194.501"><defs><style>.a{fill:#905f52;}.b{fill:#3d512a;}.c{fill:#29391b;}.d{fill:#302c31;}.e{fill:#7e5146;}</style></defs><g transform="translate(-10.533 -22.684)"><g transform="translate(10.533 22.684)"><path class="a" d="M144.8,381.842H33.25l1.535-21.069a27.786,27.786,0,0,1,23.421-25.433l8.834-1.385a9.218,9.218,0,0,0,7.8-9.111V292.418h33.145v32.427a9.222,9.222,0,0,0,7.8,9.111l8.838,1.385a27.782,27.782,0,0,1,23.417,25.433l1.189,16.312a4.435,4.435,0,0,1-4.423,4.757Z" transform="translate(-23.999 -187.341)"/><path class="b" d="M144.8,441.474H33.25l1.535-21.069a27.786,27.786,0,0,1,23.421-25.433l8.834-1.385a9.507,9.507,0,0,0,1.807-.472,30.859,30.859,0,0,0,44.88-.1,9.262,9.262,0,0,0,2.053.568l8.838,1.385a27.782,27.782,0,0,1,23.417,25.433l1.189,16.312a4.437,4.437,0,0,1-4.423,4.757Z" transform="translate(-23.999 -246.974)"/><path class="c" d="M261.985,436.718,260.8,420.406a27.725,27.725,0,0,0-7.27-16.8c-9.529-10.349-21.362-8.6-26.592-10.417l-.06-.022c-.129-.046-.259-.092-.385-.144a29.278,29.278,0,0,1-3,2.834l2.407.377a27.782,27.782,0,0,1,23.417,25.433l1.188,16.311a4.416,4.416,0,0,1-1.336,3.5h8.4A4.435,4.435,0,0,0,261.985,436.718Z" transform="translate(-136.76 -246.974)"/><path class="c" d="M259.216,464.978a3.146,3.146,0,0,0-3.146,3.146v16h6.293v-16A3.147,3.147,0,0,0,259.216,464.978Z" transform="translate(-156.076 -289.627)"/><path class="d" d="M88.5,34.4H74.434A43.965,43.965,0,0,0,36.21,56.613,23.99,23.99,0,0,0,18.337,80.5l1.215,42.016h123.07v-34A54.123,54.123,0,0,0,88.5,34.4Z" transform="translate(-15.153 -34.401)"/><g transform="translate(0 34.072)"><path class="a" d="M41.636,236.412H19.958a9.425,9.425,0,0,1-9.425-9.425v-2.955a9.425,9.425,0,0,1,9.425-9.425H41.636Z" transform="translate(-10.533 -175.29)"/><path class="a" d="M258.22,236.412H279.9a9.425,9.425,0,0,0,9.425-9.425v-2.955a9.425,9.425,0,0,0-9.425-9.425H258.22Z" transform="translate(-157.35 -175.29)"/><path class="a" d="M153.037,164.685c0,31.064-31.34,48.9-49.649,48.9s-49.649-17.832-49.649-48.9c0-19.843,5.516-34.861,14.441-44.932a5.042,5.042,0,0,1,7.552.025,67.214,67.214,0,0,0,6.528,6.521c2.755,2.367,6.008,4.527,9.635,4.566a7.67,7.67,0,0,0,6.236-3.209,3.97,3.97,0,0,1,4.977-1.283,101.761,101.761,0,0,0,37.112,9.431,11.619,11.619,0,0,1,10.683,8.935,88.239,88.239,0,0,1,2.136,19.946Z" transform="translate(-36.143 -118.065)"/></g><path class="e" d="M166.012,171.418a11.581,11.581,0,0,0-7.636-8.345A92.042,92.042,0,0,1,160.1,181.3c0,31.72-32,49.929-50.7,49.929-8.695,0-20.269-3.942-30.165-11.35C90.008,233.071,106.88,240.26,118.5,240.26c18.31,0,49.649-17.832,49.649-48.9A88.215,88.215,0,0,0,166.012,171.418Z" transform="translate(-51.255 -110.672)"/></g><g transform="translate(60.247 97.162)"><path class="d" d="M135.66,226.8a3.054,3.054,0,0,0,3.054-3.054v-3.41a3.054,3.054,0,0,0-6.109,0v3.41A3.054,3.054,0,0,0,135.66,226.8Z" transform="translate(-132.606 -217.284)"/><path class="d" d="M247.738,226.8a3.054,3.054,0,0,0,3.054-3.054v-3.41a3.054,3.054,0,0,0-6.109,0v3.41a3.054,3.054,0,0,0,3.054,3.054Z" transform="translate(-199.041 -217.284)"/><path class="d" d="M4.594,7.9A11.135,11.135,0,0,1,16.8,7.9a3.054,3.054,0,1,0,3.078-5.277,17.352,17.352,0,0,0-18.363,0A3.054,3.054,0,1,0,4.594,7.9Z" transform="translate(37.409 24.963) rotate(180)"/></g></g></svg>