<svg xmlns="http://www.w3.org/2000/svg" width="108.095" height="133.743" viewBox="0 0 108.095 133.743"><defs><style>.a{fill:#2f4859;}.b{fill:#fcd462;}.c{fill:#f6c358;}.d{fill:#d5d6db;}.e{fill:#dc8744;}.f{fill:#3a556a;}.g{fill:#64798a;}</style></defs><path class="a" d="M195.791,440c0,4.462,5.054,8.08,11.287,8.08s11.287-3.617,11.287-8.08Z" transform="translate(-152.698 -314.34)"/><path class="b" d="M135.021,62.429c-18.257,1.166-34.831,17.744-36,36A38.505,38.505,0,0,0,111.3,129.26a21.9,21.9,0,0,1,7.18,16.016l38.153,0a20.987,20.987,0,0,1,6.76-15.636,38.607,38.607,0,0,0-28.373-67.216Z" transform="translate(-83.51 -44.541)"/><circle class="c" cx="29.163" cy="29.163" r="29.163" transform="translate(24.884 27.544)"/><path class="d" d="M228.346,12.367h0a2.319,2.319,0,0,1-2.319-2.319V2.319A2.319,2.319,0,0,1,228.346,0h0a2.319,2.319,0,0,1,2.319,2.319v7.729A2.319,2.319,0,0,1,228.346,12.367Z" transform="translate(-174.298)"/><path class="d" d="M122.311,46.819h0a2.319,2.319,0,0,1-3.239-.513l-4.543-6.253a2.319,2.319,0,0,1,.513-3.239h0a2.319,2.319,0,0,1,3.239.513l4.543,6.253A2.318,2.318,0,0,1,122.311,46.819Z" transform="translate(-94.328 -25.984)"/><g transform="translate(19.759 10.388)"><path class="d" d="M122.311,46.819h0a2.319,2.319,0,0,1-3.239-.513l-4.543-6.253a2.319,2.319,0,0,1,.513-3.239h0a2.319,2.319,0,0,1,3.239.513l4.543,6.253A2.318,2.318,0,0,1,122.311,46.819Z" transform="translate(-114.087 -36.372)"/></g><path class="d" d="M56.777,137.017h0a2.319,2.319,0,0,1-2.922,1.489L46.5,136.117a2.319,2.319,0,0,1-1.489-2.922h0a2.319,2.319,0,0,1,2.922-1.489l7.351,2.388A2.318,2.318,0,0,1,56.777,137.017Z" transform="translate(-44.902 -94.01)"/><g transform="translate(0 37.582)"><path class="d" d="M56.777,137.017h0a2.319,2.319,0,0,1-2.922,1.489L46.5,136.117a2.319,2.319,0,0,1-1.489-2.922h0a2.319,2.319,0,0,1,2.922-1.489l7.351,2.388A2.318,2.318,0,0,1,56.777,137.017Z" transform="translate(-44.902 -131.593)"/></g><path class="d" d="M381.524,137.017h0a2.318,2.318,0,0,1,1.489-2.922l7.351-2.388a2.318,2.318,0,0,1,2.922,1.489h0a2.318,2.318,0,0,1-1.489,2.922l-7.351,2.388A2.319,2.319,0,0,1,381.524,137.017Z" transform="translate(-285.305 -94.01)"/><g transform="translate(96.106 37.582)"><path class="d" d="M381.524,137.017h0a2.318,2.318,0,0,1,1.489-2.922l7.351-2.388a2.318,2.318,0,0,1,2.922,1.489h0a2.318,2.318,0,0,1-1.489,2.922l-7.351,2.388A2.319,2.319,0,0,1,381.524,137.017Z" transform="translate(-381.41 -131.592)"/></g><path class="d" d="M323.016,46.819h0a2.318,2.318,0,0,1-.513-3.239l4.543-6.253a2.318,2.318,0,0,1,3.239-.513h0a2.318,2.318,0,0,1,.513,3.239l-4.543,6.253A2.318,2.318,0,0,1,323.016,46.819Z" transform="translate(-242.905 -25.984)"/><path class="e" d="M209.9,249.172h-6.983a1.338,1.338,0,0,1-1.313-1.083l-6.261-32.3a1.309,1.309,0,0,1-.024-.254V205.059a1.337,1.337,0,0,1,2.283-.946,12.438,12.438,0,0,0,17.614,0,1.337,1.337,0,0,1,2.283.946v10.475a1.3,1.3,0,0,1-.024.254l-6.261,32.3A1.337,1.337,0,0,1,209.9,249.172Zm-5.88-2.675h4.777l6.027-31.092v-7.518a15.13,15.13,0,0,1-16.831,0v7.518Z" transform="translate(-152.357 -145.54)"/><path class="f" d="M200.551,357.02a4.291,4.291,0,0,0-4.291-4.291H157.871a4.277,4.277,0,0,0-3.625,2.014l43.82,6.157A4.283,4.283,0,0,0,200.551,357.02Z" transform="translate(-123.018 -251.991)"/><path class="g" d="M152.579,359.782a4.276,4.276,0,0,0,3.625,6.568h38.389a4.254,4.254,0,0,0,1.806-.411Z" transform="translate(-121.351 -257.029)"/><path class="f" d="M200.551,385.632a4.291,4.291,0,0,0-4.291-4.291H157.871a4.277,4.277,0,0,0-3.625,2.014l43.82,6.157A4.283,4.283,0,0,0,200.551,385.632Z" transform="translate(-123.018 -272.431)"/><path class="g" d="M152.579,388.393a4.276,4.276,0,0,0,3.625,6.568h38.389a4.253,4.253,0,0,0,1.806-.411Z" transform="translate(-121.351 -277.469)"/><path class="f" d="M200.551,414.243a4.291,4.291,0,0,0-4.291-4.291H157.871a4.277,4.277,0,0,0-3.625,2.014l43.82,6.157A4.283,4.283,0,0,0,200.551,414.243Z" transform="translate(-123.018 -292.871)"/><path class="g" d="M152.579,417.005a4.276,4.276,0,0,0,3.625,6.568h38.389a4.253,4.253,0,0,0,1.806-.411Z" transform="translate(-121.351 -297.91)"/></svg>