<svg xmlns="http://www.w3.org/2000/svg" width="1454.445" height="427.861" viewBox="0 0 1454.445 427.861"><defs><style>.a{fill:#666;}.b{fill:gray;}.c{fill:#2c2c2c;}.d{fill:#3c3e41;}.e{fill:#758190;}.f{fill:#5b5d5f;}.g{fill:#f2c351;}.h{fill:#c1a24b;}.i{fill:#e47c6e;}.j{fill:#a2802c;}.k{fill:#a07f2b;}.l{fill:#cbc3b6;}.m{fill:#2b2b2b;}.n{fill:#a8b0bc;}.o{fill:#616469;}.p{fill:#77736b;}.q{fill:#4b4f53;}.r{fill:#969187;}.s{fill:#f7d881;}.t{fill:#a17f2b;}.u{fill:#464e57;}.v{fill:#3b3d40;}.w{fill:#c3a44c;}.x{fill:#c1c8d1;}.y{fill:#c0a14a;}.z{fill:#989389;}.aa{fill:#74777b;}.ab{fill:#292b18;}.ac{fill:#202006;}.ad{fill:#161616;}.ae{fill:#06130d;}.af{fill:#19203c;}.ag{fill:#0f0f0f;}.ah{fill:#1c1d1c;}.ai{fill:#1b1c1b;}</style></defs><g transform="translate(0 -595.395)"><g transform="translate(5 874.303)"><path class="a" d="M6.921,51.684l1.927,7.709h7.145l1.927-7.709" transform="translate(1.51 39.848)"/><path class="b" d="M14.784,51.684H6.921l1.9,7.595A13.42,13.42,0,0,0,14.784,51.684Z" transform="translate(1.51 39.848)"/><path class="c" d="M19,12H51.151V33.434H19Z" transform="translate(11.007 8.649)"/><path class="d" d="M19,33.434h9.14a22.854,22.854,0,0,0,11.791-20c0-.484-.043-.957-.073-1.434H19Z" transform="translate(11.007 8.649)"/><path class="e" d="M8,32h7.145V60.579H8Z" transform="translate(2.359 24.372)"/><path class="e" d="M46.014,37.862H54.92V20h7.145V45.007H46.014Z" transform="translate(32.244 14.938)"/><path class="f" d="M51,20h7.145v7.145H51Z" transform="translate(36.164 14.938)"/><path class="g" d="M22.289,28H15.145a7.145,7.145,0,0,0,0,14.289h7.145" transform="translate(2.359 21.228)"/><path class="h" d="M40,28h7.145a7.145,7.145,0,0,1,0,14.289H40" transform="translate(27.516 21.228)"/><g transform="translate(67.375 13.502)"><path class="i" d="M41.848,27.649H39.921V24.076h1.924A3.575,3.575,0,0,0,45.417,20.5L45.421,8h3.572l0,12.5A7.152,7.152,0,0,1,41.848,27.649Z" transform="translate(-39.921 -7.999)"/></g><g transform="translate(15.715 13.504)"><path class="i" d="M18.14,27.648A7.144,7.144,0,0,1,11,20.505V8h3.572V20.5a3.571,3.571,0,0,0,3.571,3.572H20.11v3.572H18.14Z" transform="translate(-10.999 -8)"/></g><path class="j" d="M37,14a7.145,7.145,0,0,1,0,14.289" transform="translate(25.158 10.221)"/><path class="k" d="M22.145,28.289a7.145,7.145,0,1,1,0-14.289" transform="translate(7.862 10.221)"/><g transform="translate(35.363 11.718)"><path class="l" d="M22,7H25.57v8.931H22Z" transform="translate(-21.999 -7)"/></g><g transform="translate(53.225 11.718)"><path class="l" d="M32,7H35.57v8.931H32Z" transform="translate(-31.999 -7)"/></g><ellipse class="m" cx="5.5" cy="5" rx="5.5" ry="5" transform="translate(32 2.742)"/><ellipse class="m" cx="5.5" cy="5" rx="5.5" ry="5" transform="translate(50 2.742)"/><g transform="translate(40.722 31.366)"><path class="n" d="M25,18H35.714v3.572H25Z" transform="translate(-24.999 -18)"/></g><path class="o" d="M24,24v7.145H38.289V24" transform="translate(14.937 18.083)"/><path class="d" d="M16,28H58.868V60.151H16Z" transform="translate(8.648 21.228)"/><path class="p" d="M65.862,14.359v8.931L60.5,28.648H53.359L48,23.289V14.359L53.359,9v5.359a3.572,3.572,0,0,0,7.145,0V9Z" transform="translate(33.806 6.29)"/><path class="q" d="M16.717,55.145H9.572a3.572,3.572,0,0,1,0-7.145h7.145a3.572,3.572,0,0,1,0,7.145Z" transform="translate(0.786 36.951)"/><path class="r" d="M8,56v7.145a3.572,3.572,0,0,0,7.145,0V56" transform="translate(2.359 43.241)"/><path class="h" d="M38.076,31,22,43.5h8.931l-3.572,8.931,16.076-12.5H34.5Z" transform="translate(13.365 23.586)"/><g transform="translate(72.873 54.586)"><path class="s" d="M43,31H46.57v3.572H43Z" transform="translate(-42.999 -31)"/></g><g transform="translate(15.715 54.586)"><path class="s" d="M11,31H14.57v3.572H11Z" transform="translate(-10.999 -31)"/></g><path class="k" d="M18,46v7.145H32.289V46" transform="translate(10.22 35.379)"/><path class="t" d="M30,46v7.145H44.289V46" transform="translate(19.654 35.379)"/><path class="u" d="M19,50V71.434H29.717V50" transform="translate(11.007 38.524)"/><path class="u" d="M31,50V71.434H41.717V50" transform="translate(20.441 38.524)"/><path class="d" d="M28.781,3.268A5.3,5.3,0,0,0,25.359,2a5.338,5.338,0,0,0-3.519,9.37,10.3,10.3,0,0,0,6.941-8.1Z" transform="translate(11.793 0.787)"/><path class="v" d="M38.781,3.268A5.3,5.3,0,0,0,35.359,2a5.338,5.338,0,0,0-3.519,9.37,10.3,10.3,0,0,0,6.941-8.1Z" transform="translate(19.654 0.787)"/><path class="h" d="M22.145,18.051V14A7.131,7.131,0,0,0,15.6,24,14.026,14.026,0,0,0,22.145,18.051Z" transform="translate(7.862 10.221)"/><path class="w" d="M43.757,18.923A7.122,7.122,0,0,0,37,14v9.778a10.363,10.363,0,0,0,6.757-4.855Z" transform="translate(25.158 10.221)"/><path class="x" d="M33.233,18H25v3.572h6.259A22.934,22.934,0,0,0,33.233,18Z" transform="translate(15.723 13.366)"/><path class="y" d="M18,46v7.145h6.269A13.766,13.766,0,0,0,28.967,46Z" transform="translate(10.22 35.379)"/><path class="h" d="M30,46v7.145h6.269A13.766,13.766,0,0,0,40.967,46Z" transform="translate(19.654 35.379)"/><path class="z" d="M58.837,17.37a3.56,3.56,0,0,1-5.478-3.011V9L48,14.359v8.931l3.8,3.8A13.556,13.556,0,0,0,58.837,17.37Z" transform="translate(33.806 6.29)"/><path class="aa" d="M6,51.572a3.571,3.571,0,0,0,3.572,3.572H15.31A13.284,13.284,0,0,0,15.819,48H9.572A3.571,3.571,0,0,0,6,51.572Z" transform="translate(0.786 36.951)"/><g transform="translate(5 0.999)"><path d="M25,18H35.715v3.572H25Z" transform="translate(10.724 12.367)"/><path d="M100.93,19.384l-5.359-5.359a1.787,1.787,0,0,0-3.051,1.265v5.359a1.785,1.785,0,1,1-3.571,0V15.29A1.787,1.787,0,0,0,85.9,14.027l-5.359,5.359a1.777,1.777,0,0,0-.522,1.263V29.58a1.78,1.78,0,0,0,.522,1.263l4.835,4.835V51.014H81.759a8.9,8.9,0,0,0-7.1-3.572H55.011V43.869h7.145a1.785,1.785,0,0,0,1.786-1.786V40.116a8.939,8.939,0,0,0,6.984-7.168,7.145,7.145,0,0,0,5.518-6.941l0-12.5H72.875l0,12.5A3.569,3.569,0,0,1,70.8,29.237a8.939,8.939,0,0,0-6.861-6.621V20.649a1.785,1.785,0,0,0-1.786-1.786H56.8V15.035a7.144,7.144,0,1,0-3.571,0v3.828H38.936V15.035a7.144,7.144,0,1,0-3.571,0v3.828H30.007a1.785,1.785,0,0,0-1.786,1.786v1.968A8.938,8.938,0,0,0,21.36,29.24a3.524,3.524,0,0,1-2.07-3.233V13.5H15.717v12.5a7.1,7.1,0,0,0,5.519,6.939,8.939,8.939,0,0,0,6.984,7.168v1.967a1.785,1.785,0,0,0,1.786,1.786h7.145V47.44H17.5a8.94,8.94,0,0,0-8.931,8.931V83.492a5.313,5.313,0,0,0-1.733,9.04l1.733,6.932v6.921a5.358,5.358,0,0,0,10.715,0V99.464l1.733-6.932a5.311,5.311,0,0,0-1.733-9.038V65.3h3.574V81.377a1.785,1.785,0,0,0,1.786,1.786h1.786v5.359a1.785,1.785,0,0,0,1.786,1.786v19.648a1.785,1.785,0,0,0,1.786,1.786H40.722a1.785,1.785,0,0,0,1.786-1.786V90.308a1.785,1.785,0,0,0,1.786-1.786V83.163h3.574v5.359a1.785,1.785,0,0,0,1.786,1.786v19.648a1.785,1.785,0,0,0,1.786,1.786H62.156a1.785,1.785,0,0,0,1.786-1.786V90.308a1.785,1.785,0,0,0,1.786-1.786V83.163h1.786A1.785,1.785,0,0,0,69.3,81.377V65.3h5.359a8.892,8.892,0,0,0,7.1-3.574h12.55a1.781,1.781,0,0,0,1.784-1.786V35.679l4.837-4.837a1.783,1.783,0,0,0,.522-1.263V20.649a1.784,1.784,0,0,0-.522-1.265ZM67.515,31.366a5.349,5.349,0,0,1-3.572,5.028V26.336A5.351,5.351,0,0,1,67.515,31.366ZM51.441,8.146a3.571,3.571,0,1,1,3.572,3.572A3.575,3.575,0,0,1,51.441,8.146Zm-17.862,0a3.571,3.571,0,1,1,3.572,3.572A3.575,3.575,0,0,1,33.579,8.146Zm-8.931,23.22a5.351,5.351,0,0,1,3.572-5.03V36.394A5.349,5.349,0,0,1,24.648,31.366Zm7.145-8.931H60.37V40.3H31.793ZM51.439,43.867V47.44H40.724V43.867Zm-39.294,39.3V63.471a8.861,8.861,0,0,0,3.571,1.65V83.163Zm-1.79,3.574H17.5a1.785,1.785,0,1,1,0,3.571H10.355a1.785,1.785,0,0,1,0-3.571Zm1.4,10.715-.893-3.572H17l-.893,3.572Zm2.176,10.717a1.785,1.785,0,0,1-1.783-1.784v-5.36h3.571v5.36a1.787,1.787,0,0,1-1.788,1.784ZM17.5,61.729a5.359,5.359,0,1,1,0-10.717h5.359V61.729ZM38.936,108.17H31.793V90.308h7.143Zm1.786-21.434H30.007V83.163H40.722ZM60.37,108.17H53.227V90.308H60.37Zm1.786-21.434H51.441V83.163H62.156Zm3.572-7.145H26.434V51.014H65.728ZM92.521,40.3H88.949V36.724h3.572ZM74.659,61.731H69.3V51.014h5.359a5.359,5.359,0,1,1,0,10.717Zm8.751-3.574a8.89,8.89,0,0,0,0-3.572h3.753A1.781,1.781,0,0,0,88.949,52.8V43.867h3.572V58.157ZM97.88,28.838,93.568,33.15H87.9l-4.312-4.312v-7.45L85.378,19.6v1.047a5.358,5.358,0,1,0,10.715,0V19.6l1.786,1.786Z" transform="translate(-5 -0.999)"/><path d="M22.786,46.073h6.291l-2.592,6.482a1.786,1.786,0,0,0,2.754,2.074l16.076-12.5a1.786,1.786,0,0,0-1.1-3.2H37.928l2.592-6.482a1.785,1.785,0,0,0-2.754-2.072L21.69,42.879a1.784,1.784,0,0,0,1.1,3.194Zm11.967-8.833L33.63,40.052A1.789,1.789,0,0,0,35.288,42.5h3.726l-6.762,5.26,1.124-2.811A1.787,1.787,0,0,0,31.717,42.5H27.991Z" transform="translate(7.579 21.802)"/><path d="M43,31h3.571v3.572H43Z" transform="translate(24.875 22.587)"/><path d="M11,31h3.571v3.572H11Z" transform="translate(-0.283 22.587)"/></g></g><path class="ab" d="M966.688,378.057l122.106,140.6H177.757l368.762-211.6a335.4,335.4,0,0,1,420.17,71Zm0,0" transform="translate(327.201 483.29)"/><path class="ac" d="M768.206,518.668H686.624L564.506,378.053A334.882,334.882,0,0,0,351.93,265.045,335.417,335.417,0,0,1,646.088,378.053Zm0,0" transform="translate(647.802 483.294)"/><path class="ad" d="M299.57,286.771,13.536,616.149H1237.017L580.324,239.334A224.107,224.107,0,0,0,299.57,286.772Zm0,0" transform="translate(24.916 385.802)"/><path class="ae" d="M981.316,616.161H859.842L203.16,239.334a224.147,224.147,0,0,0-50.711-21.361,223.755,223.755,0,0,1,172.174,21.361Zm0,0" transform="translate(280.614 385.801)"/><path class="ab" d="M472.38,314.014,690.527,453.287H149.039L362.47,314.48a101.448,101.448,0,0,1,109.911-.466Zm0,0" transform="translate(274.338 548.665)"/><path class="ac" d="M545.892,453.3H454.845L236.709,314.015c-2.952-1.875-5.992-3.606-9.088-5.171a101.466,101.466,0,0,1,100.1,5.171Zm0,0" transform="translate(418.985 548.663)"/><path class="af" d="M1433.14,387.822H21.305a21.305,21.305,0,0,1,0-42.611H1433.14a21.305,21.305,0,0,1,0,42.611Zm0,0" transform="translate(0 635.435)"/><path class="ag" d="M124.96,363.489a21.316,21.316,0,0,1-19.563-12.85l-5.626-13.005a21.307,21.307,0,0,1,39.115-16.911l5.615,12.994a21.312,21.312,0,0,1-19.541,29.772Zm0,0" transform="translate(180.417 566.7)"/><path class="ag" d="M143.449,363.472a21.321,21.321,0,0,1-19.486-29.905L129.7,320.54a21.309,21.309,0,1,1,38.993,17.2l-5.737,13.016A21.343,21.343,0,0,1,143.449,363.472Zm0,0" transform="translate(224.836 566.628)"/><path class="ah" d="M205.565,320.034A21.333,21.333,0,0,1,186,307.184l-5.626-13.005a21.309,21.309,0,0,1,39.115-16.922l5.615,13.005a21.332,21.332,0,0,1-19.541,29.772Zm0,0" transform="translate(328.788 486.695)"/><path class="ai" d="M224.054,320a21.3,21.3,0,0,1-19.486-29.894l5.737-13.027A21.307,21.307,0,0,1,249.3,294.271l-5.737,13.016A21.3,21.3,0,0,1,224.054,320Zm0,0" transform="translate(373.207 486.626)"/></g></svg>