<svg xmlns="http://www.w3.org/2000/svg" width="93.557" height="134.056" viewBox="0 0 93.557 134.056"><defs><style>.a{fill:#363f69;}.b{fill:#696969;}.c{fill:#2b3356;}.d{fill:#4d4b47;}</style></defs><path class="a" d="M171.135,437.259a11.259,11.259,0,0,1-11.259,11.259H88.921a11.259,11.259,0,0,1-11.259-11.259h0A11.259,11.259,0,0,1,88.921,426h70.955a11.259,11.259,0,0,1,11.259,11.259Z" transform="translate(-77.577 -314.461)"/><path class="b" d="M170.719,46.69c0,42.331-46.69,75.843-46.69,75.843s-46.69-36.09-46.69-75.843a46.69,46.69,0,1,1,93.381,0Z" transform="translate(-77.338)"/><path class="c" d="M282.267,437.259h0A11.268,11.268,0,0,0,270.943,426H228.452l7.124,11.06L247.1,448.517h23.845A11.268,11.268,0,0,0,282.267,437.259Z" transform="translate(-188.886 -314.461)"/><path class="d" d="M228.2,0a46.86,46.86,0,0,0-9.739,1.02,46.705,46.705,0,0,1,36.951,45.67c0,29.7-22.981,55.055-36.7,67.545,5.566,5.269,9.485,8.3,9.485,8.3s46.691-33.512,46.691-75.843A46.691,46.691,0,0,0,228.2,0Z" transform="translate(-181.514)"/><path class="d" d="M15.466,0A15.466,15.466,0,1,1,0,15.466,15.466,15.466,0,0,1,15.466,0Z" transform="translate(31.004 26.725)"/></svg>