<svg xmlns="http://www.w3.org/2000/svg" width="192.654" height="221.2" viewBox="0 0 192.654 221.2"><defs><style>.a{fill:#666;}.b{fill:gray;}.c{fill:#2c2c2c;}.d{fill:#3c3e41;}.e{fill:#758190;}.f{fill:#5b5d5f;}.g{fill:#f2c351;}.h{fill:#c1a24b;}.i{fill:#e47c6e;}.j{fill:#a2802c;}.k{fill:#a07f2b;}.l{fill:#cbc3b6;}.m{fill:#2b2b2b;}.n{fill:#a8b0bc;}.o{fill:#616469;}.p{fill:#77736b;}.q{fill:#4b4f53;}.r{fill:#969187;}.s{fill:#f7d881;}.t{fill:#a17f2b;}.u{fill:#464e57;}.v{fill:#3b3d40;}.w{fill:#c3a44c;}.x{fill:#c1c8d1;}.y{fill:#c0a14a;}.z{fill:#989389;}.aa{fill:#74777b;}</style></defs><g transform="translate(-5 -0.999)"><path class="a" d="M6.921,51.684l3.85,15.4H25.042l3.85-15.4" transform="translate(4.933 130.146)"/><path class="b" d="M22.626,51.684H6.921l3.793,15.17A26.806,26.806,0,0,0,22.626,51.684Z" transform="translate(4.933 130.146)"/><path class="c" d="M19,12H83.219V54.813H19Z" transform="translate(35.948 28.248)"/><path class="d" d="M19,54.813H37.256A45.649,45.649,0,0,0,60.807,14.865c0-.967-.086-1.912-.146-2.865H19Z" transform="translate(35.948 28.248)"/><path class="e" d="M8,32H22.271V89.084H8Z" transform="translate(7.703 79.602)"/><path class="e" d="M46.014,55.677H63.8V20H78.074V69.948H46.014Z" transform="translate(105.313 48.79)"/><path class="f" d="M51,20H65.271V34.271H51Z" transform="translate(118.116 48.79)"/><path class="g" d="M36.542,28H22.271a14.271,14.271,0,0,0,0,28.542H36.542" transform="translate(7.703 69.331)"/><path class="h" d="M40,28H54.271a14.271,14.271,0,0,1,0,28.542H40" transform="translate(89.871 69.331)"/><g transform="translate(129.589 25.973)"><path class="i" d="M43.771,47.248h-3.85V40.112h3.842A7.14,7.14,0,0,0,50.9,32.977L50.906,8h7.135l-.007,24.974A14.285,14.285,0,0,1,43.771,47.248Z" transform="translate(-39.921 -7.999)"/></g><g transform="translate(26.403 25.977)"><path class="i" d="M25.263,47.245A14.27,14.27,0,0,1,11,32.978V8h7.135V32.974a7.132,7.132,0,0,0,7.132,7.135H29.2v7.135H25.263Z" transform="translate(-10.999 -8)"/></g><path class="j" d="M37,14a14.271,14.271,0,0,1,0,28.542" transform="translate(82.168 33.383)"/><path class="k" d="M29.271,42.542a14.271,14.271,0,0,1,0-28.542" transform="translate(25.677 33.383)"/><g transform="translate(65.648 22.409)"><path class="l" d="M22,7h7.132V24.839H22Z" transform="translate(-21.999 -7)"/></g><g transform="translate(101.325 22.409)"><path class="l" d="M32,7h7.132V24.839H32Z" transform="translate(-31.999 -7)"/></g><ellipse class="m" cx="11.5" cy="10.5" rx="11.5" ry="10.5" transform="translate(58 4.199)"/><ellipse class="m" cx="11" cy="10.5" rx="11" ry="10.5" transform="translate(94 4.199)"/><g transform="translate(76.351 61.654)"><path class="n" d="M25,18H46.4v7.135H25Z" transform="translate(-24.999 -18)"/></g><path class="o" d="M24,24V38.271H52.542V24" transform="translate(48.787 59.061)"/><path class="d" d="M16,28h85.626V92.219H16Z" transform="translate(28.245 69.331)"/><path class="p" d="M83.677,19.7V37.542l-10.7,10.7H58.7L48,37.542V19.7L58.7,9V19.7a7.135,7.135,0,0,0,14.271,0V9Z" transform="translate(110.413 20.544)"/><path class="q" d="M27.406,62.271H13.135a7.135,7.135,0,0,1,0-14.271H27.406a7.135,7.135,0,0,1,0,14.271Z" transform="translate(2.568 120.686)"/><path class="r" d="M8,56V70.271a7.135,7.135,0,0,0,14.271,0V56" transform="translate(7.703 141.228)"/><path class="h" d="M54.11,31,22,55.974H39.839L32.7,73.813l32.11-24.974H46.974Z" transform="translate(43.652 77.035)"/><g transform="translate(140.57 108.035)"><path class="s" d="M43,31h7.132v7.135H43Z" transform="translate(-42.999 -31)"/></g><g transform="translate(26.403 108.035)"><path class="s" d="M11,31h7.132v7.135H11Z" transform="translate(-10.999 -31)"/></g><path class="k" d="M18,46V60.271H46.542V46" transform="translate(33.381 115.551)"/><path class="t" d="M30,46V60.271H58.542V46" transform="translate(64.193 115.551)"/><path class="u" d="M19,50V92.813H40.406V50" transform="translate(35.948 125.822)"/><path class="u" d="M31,50V92.813H52.406V50" transform="translate(66.761 125.822)"/><path class="d" d="M37.539,4.533A10.591,10.591,0,0,0,30.7,2a10.663,10.663,0,0,0-7.028,18.716A20.576,20.576,0,0,0,37.539,4.533Z" transform="translate(38.516 2.57)"/><path class="v" d="M47.539,4.533A10.591,10.591,0,0,0,40.7,2a10.663,10.663,0,0,0-7.028,18.716A20.576,20.576,0,0,0,47.539,4.533Z" transform="translate(64.193 2.57)"/><path class="h" d="M29.271,22.092V14A14.244,14.244,0,0,0,16.206,33.979,28.016,28.016,0,0,0,29.271,22.092Z" transform="translate(25.677 33.383)"/><path class="w" d="M50.5,23.833A14.226,14.226,0,0,0,37,14V33.53a20.7,20.7,0,0,0,13.5-9.7Z" transform="translate(82.168 33.383)"/><path class="x" d="M41.446,18H25v7.135H37.5A45.808,45.808,0,0,0,41.446,18Z" transform="translate(51.352 43.654)"/><path class="y" d="M18,46V60.271H30.523A27.5,27.5,0,0,0,39.906,46Z" transform="translate(33.381 115.551)"/><path class="h" d="M30,46V60.271H42.523A27.5,27.5,0,0,0,51.906,46Z" transform="translate(64.193 115.551)"/><path class="z" d="M69.645,25.718A7.111,7.111,0,0,1,58.7,19.7V9L48,19.7V37.542l7.581,7.581A27.078,27.078,0,0,0,69.645,25.718Z" transform="translate(110.413 20.544)"/><path class="aa" d="M6,55.135a7.134,7.134,0,0,0,7.135,7.135H24.6a26.671,26.671,0,0,0,1.556-8.919A26.72,26.72,0,0,0,25.612,48H13.135A7.134,7.134,0,0,0,6,55.135Z" transform="translate(2.568 120.686)"/><g transform="translate(5 0.999)"><path d="M25,18H46.4v7.135H25Z" transform="translate(46.355 42.655)"/><path d="M196.613,37.722l-10.7-10.7a3.57,3.57,0,0,0-6.094,2.526v10.7a3.566,3.566,0,1,1-7.132,0v-10.7a3.57,3.57,0,0,0-6.094-2.522l-10.7,10.7a3.549,3.549,0,0,0-1.042,2.522V58.086a3.555,3.555,0,0,0,1.042,2.522l9.658,9.658V100.9H158.32a17.768,17.768,0,0,0-14.182-7.135H104.893V86.628h14.271a3.564,3.564,0,0,0,3.568-3.568V79.132a17.855,17.855,0,0,0,13.95-14.317A14.272,14.272,0,0,0,147.7,50.951l.007-24.974h-7.135l-.007,24.974a7.128,7.128,0,0,1-4.131,6.45,17.854,17.854,0,0,0-13.7-13.226V40.248a3.564,3.564,0,0,0-3.568-3.568h-10.7V29.034a14.269,14.269,0,1,0-7.132,0V36.68H72.783V29.034a14.269,14.269,0,1,0-7.132,0V36.68h-10.7a3.564,3.564,0,0,0-3.568,3.568v3.932a17.853,17.853,0,0,0-13.7,13.229,7.039,7.039,0,0,1-4.135-6.458V25.977H26.406V50.951A14.175,14.175,0,0,0,37.431,64.812a17.855,17.855,0,0,0,13.95,14.317v3.928a3.564,3.564,0,0,0,3.568,3.568H69.219V93.76H29.974A17.857,17.857,0,0,0,12.135,111.6v54.173a10.611,10.611,0,0,0-3.461,18.056l3.461,13.846V211.5a10.7,10.7,0,0,0,21.4,0V197.674L37,183.828a10.608,10.608,0,0,0-3.461-18.053V129.438h7.139v32.11a3.564,3.564,0,0,0,3.568,3.568h3.568v10.7a3.564,3.564,0,0,0,3.568,3.568v39.245a3.564,3.564,0,0,0,3.568,3.568h21.4a3.564,3.564,0,0,0,3.568-3.568V179.386a3.564,3.564,0,0,0,3.568-3.568v-10.7h7.139v10.7a3.564,3.564,0,0,0,3.568,3.568v39.245a3.564,3.564,0,0,0,3.568,3.568h21.4a3.564,3.564,0,0,0,3.568-3.568V179.386a3.564,3.564,0,0,0,3.568-3.568v-10.7h3.568a3.564,3.564,0,0,0,3.568-3.568V129.441h10.7A17.761,17.761,0,0,0,158.32,122.3h25.067a3.557,3.557,0,0,0,3.564-3.568V70.27l9.661-9.661a3.561,3.561,0,0,0,1.042-2.522V40.248a3.563,3.563,0,0,0-1.042-2.526ZM129.867,61.654A10.684,10.684,0,0,1,122.732,71.7V51.607A10.689,10.689,0,0,1,129.867,61.654ZM97.761,15.274a7.134,7.134,0,1,1,7.135,7.135A7.14,7.14,0,0,1,97.761,15.274Zm-35.677,0a7.134,7.134,0,1,1,7.135,7.135A7.14,7.14,0,0,1,62.084,15.274ZM44.245,61.654a10.689,10.689,0,0,1,7.135-10.047V71.7A10.684,10.684,0,0,1,44.245,61.654ZM58.516,43.815H115.6V79.493H58.516ZM97.758,86.625V93.76h-21.4V86.625Zm-78.487,78.49V125.781a17.7,17.7,0,0,0,7.132,3.3v36.038ZM15.7,172.254H29.971a3.566,3.566,0,1,1,0,7.132H15.7a3.566,3.566,0,0,1,0-7.132Zm2.79,21.4L16.7,186.521H28.968l-1.784,7.135Zm4.346,21.406a3.564,3.564,0,0,1-3.561-3.564V200.792H26.4V211.5a3.569,3.569,0,0,1-3.571,3.564ZM29.974,122.3a10.7,10.7,0,1,1,0-21.406h10.7V122.3Zm42.809,92.761H58.516V179.386H72.783Zm3.568-42.813h-21.4v-7.135h21.4ZM115.6,215.063H101.329V179.386H115.6Zm3.568-42.813h-21.4v-7.135h21.4Zm7.135-14.271H47.813V100.9H126.3Zm53.516-78.487H172.68V72.357h7.135Zm-35.677,42.813h-10.7V100.9h10.7a10.7,10.7,0,1,1,0,21.406Zm17.478-7.139a17.756,17.756,0,0,0,0-7.135h7.5a3.557,3.557,0,0,0,3.564-3.568V86.625h7.135v28.542Zm28.9-58.561-8.613,8.613H170.593l-8.613-8.613V41.725l3.568-3.568v2.091a10.7,10.7,0,1,0,21.4,0V38.157l3.568,3.568Z" transform="translate(-5 -0.999)"/><path d="M24.568,62.1H37.134L31.957,75.051a3.568,3.568,0,0,0,5.5,4.142l32.11-24.974a3.567,3.567,0,0,0-2.191-6.383H54.812l5.177-12.947a3.566,3.566,0,0,0-5.5-4.139L22.378,55.725A3.564,3.564,0,0,0,24.568,62.1Zm23.9-17.642-2.244,5.616a3.572,3.572,0,0,0,3.311,4.895h7.442L43.474,65.479l2.244-5.616a3.568,3.568,0,0,0-3.311-4.891H34.965Z" transform="translate(36.083 73.47)"/><path d="M43,31h7.132v7.135H43Z" transform="translate(92.574 76.036)"/><path d="M11,31h7.132v7.135H11Z" transform="translate(10.406 76.036)"/></g></g></svg>